NSW-ACT-Foundation-Bold.ufo
<glyph name="plus" format="2">
  <advance width="440"/>
  <unicode hex="002B"/>
  <outline>
    <contour>
      <point x="197" y="41" type="curve" smooth="yes"/>
      <point x="217" y="41"/>
      <point x="238" y="54"/>
      <point x="241" y="81" type="curve" smooth="yes"/>
      <point x="263" y="296" type="line" smooth="yes"/>
      <point x="266" y="329"/>
      <point x="242" y="350"/>
      <point x="215" y="350" type="curve" smooth="yes"/>
      <point x="195" y="350"/>
      <point x="173" y="337"/>
      <point x="170" y="310" type="curve" smooth="yes"/>
      <point x="148" y="95" type="line" smooth="yes"/>
      <point x="146" y="62"/>
      <point x="170" y="41"/>
    </contour>
    <contour>
      <point x="46" y="198" type="curve" smooth="yes"/>
      <point x="48" y="174"/>
      <point x="69" y="154"/>
      <point x="100" y="154" type="curve" smooth="yes"/>
      <point x="317" y="154" type="line" smooth="yes"/>
      <point x="348" y="154"/>
      <point x="367" y="174"/>
      <point x="365" y="198" type="curve" smooth="yes"/>
      <point x="364" y="221"/>
      <point x="342" y="241"/>
      <point x="311" y="241" type="curve" smooth="yes"/>
      <point x="94" y="241" type="line" smooth="yes"/>
      <point x="63" y="241"/>
      <point x="45" y="221"/>
    </contour>
  </outline>
</glyph>
<glyph name="zero" format="2">
  <advance width="476"/>
  <unicode hex="0030"/>
  <outline>
    <contour>
      <point x="166" y="-4" type="curve" smooth="yes"/>
      <point x="301" y="-3"/>
      <point x="450" y="223"/>
      <point x="438" y="395" type="curve" smooth="yes"/>
      <point x="433" y="471"/>
      <point x="394" y="568"/>
      <point x="274" y="568" type="curve" smooth="yes"/>
      <point x="74" y="568"/>
      <point x="19" y="290"/>
      <point x="27" y="172" type="curve" smooth="yes"/>
      <point x="33" y="91"/>
      <point x="76" y="-4"/>
    </contour>
    <contour>
      <point x="160" y="88" type="curve" smooth="yes"/>
      <point x="144" y="88"/>
      <point x="131" y="107"/>
      <point x="126" y="168" type="curve" smooth="yes"/>
      <point x="118" y="281"/>
      <point x="173" y="476"/>
      <point x="283" y="476" type="curve" smooth="yes"/>
      <point x="325" y="476"/>
      <point x="336" y="449"/>
      <point x="339" y="398" type="curve" smooth="yes"/>
      <point x="351" y="225"/>
      <point x="210" y="88"/>
    </contour>
  </outline>
</glyph>
<glyph name="three" format="2">
  <advance width="423"/>
  <unicode hex="0033"/>
  <outline>
    <contour>
      <point x="-15" y="93" type="curve" smooth="yes"/>
      <point x="-24" y="76"/>
      <point x="-25" y="54"/>
      <point x="10" y="28" type="curve" smooth="yes"/>
      <point x="38" y="7"/>
      <point x="75" y="-4"/>
      <point x="112" y="-4" type="curve" smooth="yes"/>
      <point x="238" y="-4"/>
      <point x="383" y="104"/>
      <point x="375" y="246" type="curve" smooth="yes"/>
      <point x="371" y="310"/>
      <point x="320" y="369"/>
      <point x="228" y="369" type="curve"/>
      <point x="132" y="327" type="line"/>
      <point x="132" y="246" type="line"/>
      <point x="171" y="275"/>
      <point x="196" y="279"/>
      <point x="224" y="279" type="curve" smooth="yes"/>
      <point x="253" y="279"/>
      <point x="275" y="259"/>
      <point x="277" y="232" type="curve" smooth="yes"/>
      <point x="283" y="145"/>
      <point x="185" y="86"/>
      <point x="107" y="86" type="curve" smooth="yes"/>
      <point x="89" y="86"/>
      <point x="77" y="91"/>
      <point x="54" y="106" type="curve" smooth="yes"/>
      <point x="28" y="123"/>
      <point x="-5" y="113"/>
    </contour>
    <contour>
      <point x="59" y="260" type="curve" smooth="yes"/>
      <point x="73" y="233"/>
      <point x="106" y="227"/>
      <point x="132" y="246" type="curve" smooth="yes"/>
      <point x="240" y="325"/>
      <point x="356" y="418"/>
      <point x="353" y="484" type="curve" smooth="yes"/>
      <point x="351" y="535"/>
      <point x="297" y="568"/>
      <point x="239" y="568.0" type="curve" smooth="yes"/>
      <point x="175" y="568"/>
      <point x="116" y="550"/>
      <point x="58" y="510" type="curve" smooth="yes"/>
      <point x="33" y="492"/>
      <point x="29" y="466"/>
      <point x="43" y="445" type="curve" smooth="yes"/>
      <point x="57" y="424"/>
      <point x="91" y="418"/>
      <point x="113" y="433" type="curve" smooth="yes"/>
      <point x="166" y="470"/>
      <point x="209" y="486"/>
      <point x="231" y="486.0" type="curve" smooth="yes"/>
      <point x="247" y="486"/>
      <point x="255" y="481"/>
      <point x="255.0" y="470" type="curve" smooth="yes"/>
      <point x="255" y="453"/>
      <point x="148" y="374"/>
      <point x="73" y="323" type="curve" smooth="yes"/>
      <point x="47" y="305"/>
      <point x="48" y="280"/>
    </contour>
  </outline>
</glyph>
<glyph name="five" format="2">
  <advance width="386"/>
  <unicode hex="0035"/>
  <outline>
    <contour>
      <point x="130" y="-3" type="curve" smooth="yes"/>
      <point x="252.0" y="-3.0"/>
      <point x="352.0" y="98"/>
      <point x="352" y="203" type="curve" smooth="yes"/>
      <point x="352" y="293"/>
      <point x="279" y="372"/>
      <point x="170" y="372" type="curve" smooth="yes"/>
      <point x="138" y="372"/>
      <point x="98" y="366"/>
      <point x="86" y="364" type="curve"/>
      <point x="86" y="265" type="line"/>
      <point x="117.0" y="276"/>
      <point x="132.0" y="281.0"/>
      <point x="168" y="281" type="curve" smooth="yes"/>
      <point x="228" y="281"/>
      <point x="251" y="238"/>
      <point x="251.0" y="196" type="curve" smooth="yes"/>
      <point x="251" y="135.0"/>
      <point x="194.0" y="83.0"/>
      <point x="125" y="83" type="curve" smooth="yes"/>
      <point x="107" y="83"/>
      <point x="92" y="86"/>
      <point x="81" y="93" type="curve" smooth="yes"/>
      <point x="69" y="101"/>
      <point x="55" y="110"/>
      <point x="42" y="110" type="curve" smooth="yes"/>
      <point x="21" y="110"/>
      <point x="1" y="97"/>
      <point x="1" y="72" type="curve" smooth="yes"/>
      <point x="1" y="58"/>
      <point x="9" y="45"/>
      <point x="24" y="31" type="curve" smooth="yes"/>
      <point x="49" y="8"/>
      <point x="89" y="-3"/>
    </contour>
    <contour>
      <point x="26" y="312" type="line" smooth="yes"/>
      <point x="22" y="281"/>
      <point x="58" y="257"/>
      <point x="86" y="265" type="curve"/>
      <point x="128" y="304" type="line"/>
      <point x="151" y="529" type="line"/>
      <point x="118" y="571" type="line"/>
      <point x="75.0" y="571.0"/>
      <point x="54" y="555"/>
      <point x="50" y="524" type="curve" smooth="yes"/>
    </contour>
    <contour>
      <point x="381" y="529" type="curve" smooth="yes"/>
      <point x="382" y="556"/>
      <point x="359.0" y="571.0"/>
      <point x="329" y="571" type="curve" smooth="yes"/>
      <point x="118" y="571" type="line"/>
      <point x="109" y="487" type="line"/>
      <point x="335" y="487" type="line" smooth="yes"/>
      <point x="367.0" y="487.0"/>
      <point x="380" y="505"/>
    </contour>
  </outline>
</glyph>
<glyph name="eight" format="2">
  <advance width="393"/>
  <unicode hex="0038"/>
  <outline>
    <contour>
      <point x="177" y="81" type="curve" smooth="yes"/>
      <point x="144" y="81"/>
      <point x="120" y="108"/>
      <point x="118" y="148" type="curve" smooth="yes"/>
      <point x="116" y="177"/>
      <point x="121" y="221"/>
      <point x="214" y="289" type="curve" smooth="yes"/>
      <point x="292" y="346"/>
      <point x="381" y="405"/>
      <point x="376" y="472" type="curve" smooth="yes"/>
      <point x="371" y="539"/>
      <point x="281" y="569"/>
      <point x="219" y="569" type="curve" smooth="yes"/>
      <point x="142" y="569"/>
      <point x="46" y="526"/>
      <point x="53" y="428" type="curve" smooth="yes"/>
      <point x="58" y="355"/>
      <point x="120" y="314"/>
      <point x="142" y="292" type="curve" smooth="yes"/>
      <point x="161" y="273" type="line" smooth="yes"/>
      <point x="197" y="237"/>
      <point x="244" y="191"/>
      <point x="247" y="148" type="curve" smooth="yes"/>
      <point x="249" y="114"/>
      <point x="218" y="81"/>
    </contour>
    <contour>
      <point x="178" y="-4" type="curve" smooth="yes"/>
      <point x="293" y="-4"/>
      <point x="347" y="87"/>
      <point x="342" y="157" type="curve" smooth="yes"/>
      <point x="338" y="219"/>
      <point x="285" y="278"/>
      <point x="234" y="325" type="curve" smooth="yes"/>
      <point x="209" y="348" type="line" smooth="yes"/>
      <point x="181" y="374"/>
      <point x="152" y="397"/>
      <point x="149" y="433" type="curve" smooth="yes"/>
      <point x="146" y="470"/>
      <point x="174" y="488"/>
      <point x="209" y="488" type="curve" smooth="yes"/>
      <point x="241" y="488"/>
      <point x="282" y="486"/>
      <point x="283" y="471" type="curve" smooth="yes"/>
      <point x="284" y="456"/>
      <point x="208" y="393"/>
      <point x="151" y="354" type="curve" smooth="yes"/>
      <point x="47" y="283"/>
      <point x="19" y="197"/>
      <point x="23" y="141" type="curve" smooth="yes"/>
      <point x="27" y="80"/>
      <point x="67" y="-4"/>
    </contour>
  </outline>
</glyph>
<glyph name="nine" format="2">
  <advance width="390"/>
  <unicode hex="0039"/>
  <outline>
    <contour>
      <point x="247" y="-5" type="curve" smooth="yes"/>
      <point x="270" y="-5"/>
      <point x="296" y="10"/>
      <point x="299" y="36" type="curve" smooth="yes"/>
      <point x="352" y="529" type="line" smooth="yes"/>
      <point x="355" y="555"/>
      <point x="339" y="568"/>
      <point x="306" y="568" type="curve" smooth="yes"/>
      <point x="257" y="568" type="line"/>
      <point x="202" y="43" type="line" smooth="yes"/>
      <point x="199" y="11"/>
      <point x="225" y="-5"/>
    </contour>
    <contour>
      <point x="25" y="338" type="curve" smooth="yes"/>
      <point x="14" y="242"/>
      <point x="86" y="214"/>
      <point x="135" y="214" type="curve" smooth="yes"/>
      <point x="169" y="214"/>
      <point x="212" y="241"/>
      <point x="238" y="273" type="curve"/>
      <point x="258" y="426" type="line"/>
      <point x="249" y="426" type="line"/>
      <point x="244" y="372"/>
      <point x="173" y="301"/>
      <point x="145" y="301" type="curve" smooth="yes"/>
      <point x="131" y="301"/>
      <point x="122" y="317"/>
      <point x="124" y="336" type="curve" smooth="yes"/>
      <point x="129" y="382"/>
      <point x="139" y="482"/>
      <point x="198" y="482" type="curve"/>
      <point x="259" y="482" type="line"/>
      <point x="268" y="568" type="line"/>
      <point x="215" y="568" type="line"/>
      <point x="85" y="568"/>
      <point x="37" y="451"/>
    </contour>
  </outline>
</glyph>
<glyph name="colon" format="2">
  <advance width="232"/>
  <unicode hex="003A"/>
  <outline>
    <contour>
      <point x="86" y="-12" type="curve" smooth="yes"/>
      <point x="116" y="-12"/>
      <point x="142" y="14"/>
      <point x="142" y="44" type="curve" smooth="yes"/>
      <point x="142" y="74"/>
      <point x="116.0" y="98"/>
      <point x="86.0" y="99" type="curve" smooth="yes"/>
      <point x="55" y="99"/>
      <point x="32" y="74"/>
      <point x="32" y="45" type="curve" smooth="yes"/>
      <point x="32" y="16"/>
      <point x="55" y="-11"/>
    </contour>
    <contour>
      <point x="122" y="215" type="curve" smooth="yes"/>
      <point x="152" y="215"/>
      <point x="178" y="242"/>
      <point x="178" y="272" type="curve" smooth="yes"/>
      <point x="178" y="301"/>
      <point x="152.0" y="325"/>
      <point x="123.0" y="326" type="curve" smooth="yes"/>
      <point x="92.0" y="326"/>
      <point x="68" y="300"/>
      <point x="68" y="272" type="curve" smooth="yes"/>
      <point x="68" y="244"/>
      <point x="92" y="216"/>
    </contour>
  </outline>
</glyph>
<glyph name="semicolon" format="2">
  <advance width="231"/>
  <unicode hex="003B"/>
  <outline>
    <contour>
      <point x="80" y="-102" type="curve" smooth="yes"/>
      <point x="103" y="-104"/>
      <point x="128" y="-89"/>
      <point x="131" y="-60" type="curve" smooth="yes"/>
      <point x="142" y="39" type="line" smooth="yes"/>
      <point x="146" y="71"/>
      <point x="123" y="91"/>
      <point x="95" y="94" type="curve" smooth="yes"/>
      <point x="70" y="97"/>
      <point x="44" y="83"/>
      <point x="41" y="54" type="curve" smooth="yes"/>
      <point x="31" y="-45" type="line" smooth="yes"/>
      <point x="27" y="-78"/>
      <point x="53" y="-100"/>
    </contour>
    <contour>
      <point x="122" y="215" type="curve" smooth="yes"/>
      <point x="152" y="215"/>
      <point x="178" y="242"/>
      <point x="178" y="272" type="curve" smooth="yes"/>
      <point x="178" y="301"/>
      <point x="152.0" y="325"/>
      <point x="123.0" y="326" type="curve" smooth="yes"/>
      <point x="92.0" y="326"/>
      <point x="68" y="300"/>
      <point x="68" y="272" type="curve" smooth="yes"/>
      <point x="68" y="244"/>
      <point x="92" y="216"/>
    </contour>
  </outline>
</glyph>
<glyph name="less" format="2">
  <advance width="415"/>
  <unicode hex="003C"/>
  <outline>
    <contour>
      <point x="105" y="148" type="line"/>
      <point x="321" y="266" type="line" smooth="yes"/>
      <point x="350" y="281"/>
      <point x="357" y="301"/>
      <point x="349" y="323" type="curve" smooth="yes"/>
      <point x="341" y="347"/>
      <point x="309" y="364"/>
      <point x="280" y="348" type="curve" smooth="yes"/>
      <point x="69" y="232" type="line"/>
    </contour>
    <contour>
      <point x="253" y="49" type="line" smooth="yes"/>
      <point x="279" y="34"/>
      <point x="307" y="38"/>
      <point x="320" y="56" type="curve" smooth="yes"/>
      <point x="335" y="78"/>
      <point x="328" y="102"/>
      <point x="302" y="121" type="curve"/>
      <point x="123" y="229" type="line"/>
      <point x="98" y="246"/>
      <point x="67" y="239"/>
      <point x="55" y="217" type="curve" smooth="yes"/>
      <point x="43" y="195"/>
      <point x="48" y="175"/>
      <point x="74" y="158" type="curve" smooth="yes"/>
    </contour>
  </outline>
</glyph>
<glyph name="C" format="2">
  <advance width="509"/>
  <unicode hex="0043"/>
  <outline>
    <contour>
      <point x="226" y="-4" type="curve" smooth="yes"/>
      <point x="335" y="-4"/>
      <point x="418" y="55"/>
      <point x="452" y="116" type="curve" smooth="yes"/>
      <point x="475" y="158"/>
      <point x="460" y="191"/>
      <point x="435" y="204" type="curve" smooth="yes"/>
      <point x="410" y="217"/>
      <point x="387" y="207"/>
      <point x="375" y="181" type="curve" smooth="yes"/>
      <point x="352" y="132"/>
      <point x="304" y="84"/>
      <point x="227" y="84" type="curve" smooth="yes"/>
      <point x="152" y="84"/>
      <point x="122" y="163"/>
      <point x="143" y="331" type="curve" smooth="yes"/>
      <point x="161" y="477"/>
      <point x="222" y="560"/>
      <point x="330" y="560" type="curve" smooth="yes"/>
      <point x="369" y="560"/>
      <point x="410" y="536"/>
      <point x="431" y="521" type="curve" smooth="yes"/>
      <point x="453" y="506"/>
      <point x="478" y="509"/>
      <point x="494" y="537" type="curve" smooth="yes"/>
      <point x="511" y="567"/>
      <point x="498" y="597"/>
      <point x="480" y="610" type="curve" smooth="yes"/>
      <point x="455" y="629"/>
      <point x="384" y="650"/>
      <point x="323" y="650" type="curve" smooth="yes"/>
      <point x="167" y="650"/>
      <point x="72" y="546"/>
      <point x="42" y="343" type="curve" smooth="yes"/>
      <point x="11" y="132"/>
      <point x="73" y="-4"/>
    </contour>
  </outline>
</glyph>
<glyph name="D" format="2">
  <advance width="555"/>
  <unicode hex="0044"/>
  <outline>
    <contour>
      <point x="515" y="336" type="curve" smooth="yes"/>
      <point x="534" y="523"/>
      <point x="420.0" y="650.0"/>
      <point x="228" y="650" type="curve" smooth="yes"/>
      <point x="157" y="650" type="line"/>
      <point x="148" y="562" type="line"/>
      <point x="217" y="562" type="line" smooth="yes"/>
      <point x="351.0" y="562.0"/>
      <point x="432.0" y="489.0"/>
      <point x="418" y="339" type="curve" smooth="yes"/>
      <point x="403" y="173"/>
      <point x="311" y="89"/>
      <point x="168" y="89" type="curve" smooth="yes"/>
      <point x="110" y="89" type="line"/>
      <point x="98" y="0" type="line"/>
      <point x="174" y="0" type="line" smooth="yes"/>
      <point x="367" y="0"/>
      <point x="493" y="129"/>
    </contour>
    <contour>
      <point x="50" y="49" type="line" smooth="yes"/>
      <point x="47" y="21"/>
      <point x="69" y="0"/>
      <point x="100" y="0" type="curve"/>
      <point x="150" y="41" type="line"/>
      <point x="209" y="600" type="line"/>
      <point x="159" y="650" type="line"/>
      <point x="127" y="650"/>
      <point x="112" y="636"/>
      <point x="109" y="609" type="curve" smooth="yes"/>
    </contour>
  </outline>
</glyph>
<glyph name="G" format="2">
  <advance width="535"/>
  <unicode hex="0047"/>
  <outline>
    <contour>
      <point x="183" y="-4" type="curve" smooth="yes"/>
      <point x="296" y="-4"/>
      <point x="368" y="161"/>
      <point x="429" y="285" type="curve"/>
      <point x="431" y="370" type="line"/>
      <point x="393" y="370"/>
      <point x="389" y="361"/>
      <point x="337" y="271" type="curve" smooth="yes"/>
      <point x="306" y="217"/>
      <point x="228" y="85"/>
      <point x="189" y="85" type="curve" smooth="yes"/>
      <point x="139" y="85"/>
      <point x="122" y="171"/>
      <point x="141" y="329" type="curve" smooth="yes"/>
      <point x="157" y="462"/>
      <point x="190" y="559.0"/>
      <point x="304" y="559" type="curve" smooth="yes"/>
      <point x="353" y="559"/>
      <point x="382" y="543"/>
      <point x="392" y="518" type="curve" smooth="yes"/>
      <point x="405" y="487"/>
      <point x="427" y="476"/>
      <point x="460" y="485" type="curve" smooth="yes"/>
      <point x="487" y="492"/>
      <point x="494" y="520"/>
      <point x="487" y="545" type="curve" smooth="yes"/>
      <point x="469" y="616"/>
      <point x="395" y="650"/>
      <point x="304" y="650" type="curve" smooth="yes"/>
      <point x="144" y="650"/>
      <point x="68" y="531"/>
      <point x="40" y="342" type="curve" smooth="yes"/>
      <point x="10" y="139"/>
      <point x="39" y="-4"/>
    </contour>
    <contour>
      <point x="402" y="0" type="curve" smooth="yes"/>
      <point x="437" y="0"/>
      <point x="447" y="18"/>
      <point x="450" y="42" type="curve" smooth="yes"/>
      <point x="480" y="320" type="line" smooth="yes"/>
      <point x="483" y="351"/>
      <point x="462" y="370"/>
      <point x="431" y="370" type="curve"/>
      <point x="379" y="327" type="line"/>
      <point x="350" y="49" type="line" smooth="yes"/>
      <point x="347" y="18"/>
      <point x="368" y="0"/>
    </contour>
  </outline>
</glyph>
<glyph name="H" format="2">
  <advance width="595"/>
  <unicode hex="0048"/>
  <outline>
    <contour>
      <point x="100" y="0" type="curve" smooth="yes"/>
      <point x="134" y="0"/>
      <point x="148" y="20"/>
      <point x="150" y="40" type="curve" smooth="yes"/>
      <point x="207" y="597" type="line" smooth="yes"/>
      <point x="211" y="632"/>
      <point x="193" y="650"/>
      <point x="164" y="650" type="curve" smooth="yes"/>
      <point x="137" y="650"/>
      <point x="111" y="637"/>
      <point x="108" y="609" type="curve" smooth="yes"/>
      <point x="50" y="49" type="line" smooth="yes"/>
      <point x="47" y="21"/>
      <point x="68" y="0"/>
    </contour>
    <contour>
      <point x="128" y="292" type="line"/>
      <point x="458" y="292" type="line"/>
      <point x="466" y="372" type="line"/>
      <point x="136" y="372" type="line"/>
    </contour>
    <contour>
      <point x="433" y="0" type="curve" smooth="yes"/>
      <point x="462" y="0"/>
      <point x="482" y="17"/>
      <point x="484" y="37" type="curve" smooth="yes"/>
      <point x="543" y="599" type="line" smooth="yes"/>
      <point x="546" y="631"/>
      <point x="525" y="650"/>
      <point x="494" y="650" type="curve" smooth="yes"/>
      <point x="466" y="650"/>
      <point x="446" y="635"/>
      <point x="444" y="613" type="curve" smooth="yes"/>
      <point x="385" y="49" type="line" smooth="yes"/>
      <point x="382" y="20"/>
      <point x="400" y="0"/>
    </contour>
  </outline>
</glyph>
<glyph name="P" format="2">
  <advance width="491"/>
  <unicode hex="0050"/>
  <outline>
    <contour>
      <point x="490" y="467" type="curve" smooth="yes"/>
      <point x="505" y="602"/>
      <point x="364" y="656"/>
      <point x="153" y="652" type="curve"/>
      <point x="160" y="561" type="line"/>
      <point x="342" y="564"/>
      <point x="397" y="535"/>
      <point x="390" y="472" type="curve" smooth="yes"/>
      <point x="380" y="382"/>
      <point x="251" y="359"/>
      <point x="141" y="357" type="curve"/>
      <point x="132" y="267" type="line"/>
      <point x="283" y="269"/>
      <point x="471" y="289"/>
    </contour>
    <contour>
      <point x="98" y="-6" type="curve" smooth="yes"/>
      <point x="132" y="-6"/>
      <point x="146" y="17"/>
      <point x="148" y="39" type="curve"/>
      <point x="206" y="597" type="line"/>
      <point x="153" y="652" type="line"/>
      <point x="127" y="652"/>
      <point x="110" y="637"/>
      <point x="107" y="609" type="curve" smooth="yes"/>
      <point x="48" y="48" type="line" smooth="yes"/>
      <point x="45" y="21"/>
      <point x="65" y="-6"/>
    </contour>
  </outline>
</glyph>
<glyph name="U" format="2">
  <advance width="596"/>
  <unicode hex="0055"/>
  <outline>
    <contour>
      <point x="168" y="-4" type="curve" smooth="yes"/>
      <point x="253" y="-4"/>
      <point x="342" y="107"/>
      <point x="427" y="273" type="curve"/>
      <point x="461" y="549" type="line"/>
      <point x="438" y="549" type="line"/>
      <point x="418" y="343"/>
      <point x="225" y="86"/>
      <point x="182" y="86" type="curve" smooth="yes"/>
      <point x="159" y="86"/>
      <point x="157" y="125"/>
      <point x="165" y="195" type="curve" smooth="yes"/>
      <point x="210" y="600" type="line" smooth="yes"/>
      <point x="213" y="629"/>
      <point x="191" y="650"/>
      <point x="162" y="650" type="curve" smooth="yes"/>
      <point x="129" y="651"/>
      <point x="112" y="624"/>
      <point x="110" y="606" type="curve" smooth="yes"/>
      <point x="64" y="195" type="line" smooth="yes"/>
      <point x="49" y="57"/>
      <point x="83" y="-4"/>
    </contour>
    <contour>
      <point x="434" y="0" type="curve" smooth="yes"/>
      <point x="459" y="0"/>
      <point x="481" y="12"/>
      <point x="484" y="44" type="curve" smooth="yes"/>
      <point x="544" y="602" type="line" smooth="yes"/>
      <point x="547" y="630"/>
      <point x="528" y="650"/>
      <point x="494" y="650" type="curve" smooth="yes"/>
      <point x="466" y="650"/>
      <point x="446" y="635"/>
      <point x="444" y="612" type="curve" smooth="yes"/>
      <point x="385" y="49" type="line" smooth="yes"/>
      <point x="382" y="16"/>
      <point x="406" y="0"/>
    </contour>
  </outline>
</glyph>
<glyph name="W" format="2">
  <advance width="801"/>
  <unicode hex="0057"/>
  <outline>
    <contour>
      <point x="581" y="33" type="curve" smooth="yes"/>
      <point x="810" y="591" type="line" smooth="yes"/>
      <point x="820" y="615"/>
      <point x="805" y="650"/>
      <point x="767" y="650" type="curve" smooth="yes"/>
      <point x="735" y="650"/>
      <point x="718" y="630"/>
      <point x="712" y="616" type="curve" smooth="yes"/>
      <point x="577" y="276" type="line"/>
      <point x="533" y="158" type="line"/>
      <point x="528" y="0" type="line"/>
      <point x="559" y="0"/>
      <point x="572" y="12"/>
    </contour>
    <contour>
      <point x="136" y="44" type="line" smooth="yes"/>
      <point x="140" y="15"/>
      <point x="160" y="0"/>
      <point x="193" y="0" type="curve"/>
      <point x="216" y="126" type="line"/>
      <point x="197" y="280" type="line"/>
      <point x="151" y="610" type="line" smooth="yes"/>
      <point x="148" y="633"/>
      <point x="127" y="650"/>
      <point x="95" y="650" type="curve" smooth="yes"/>
      <point x="66" y="650"/>
      <point x="46" y="634"/>
      <point x="51" y="604" type="curve" smooth="yes"/>
    </contour>
    <contour>
      <point x="258" y="43" type="curve" smooth="yes"/>
      <point x="398" y="412" type="line"/>
      <point x="424" y="492" type="line"/>
      <point x="429" y="650" type="line"/>
      <point x="397" y="650"/>
      <point x="382" y="634"/>
      <point x="374" y="612" type="curve" smooth="yes"/>
      <point x="245" y="277" type="line"/>
      <point x="193" y="134" type="line"/>
      <point x="193" y="0" type="line"/>
      <point x="224" y="0"/>
      <point x="247" y="14"/>
    </contour>
    <contour>
      <point x="477" y="32" type="line" smooth="yes"/>
      <point x="480" y="15"/>
      <point x="498" y="0"/>
      <point x="528" y="0" type="curve"/>
      <point x="550" y="158" type="line"/>
      <point x="536" y="276" type="line"/>
      <point x="488" y="610" type="line" smooth="yes"/>
      <point x="484" y="635"/>
      <point x="464" y="650"/>
      <point x="429" y="650" type="curve"/>
      <point x="412" y="496" type="line"/>
      <point x="420" y="412" type="line"/>
    </contour>
  </outline>
</glyph>
<glyph name="X" format="2">
  <advance width="456"/>
  <unicode hex="0058"/>
  <outline>
    <contour>
      <point x="17" y="13" type="curve" smooth="yes"/>
      <point x="37" y="-3"/>
      <point x="78" y="-8"/>
      <point x="93" y="16" type="curve" smooth="yes"/>
      <point x="260" y="279" type="line"/>
      <point x="265" y="279" type="line"/>
      <point x="468" y="578" type="line" smooth="yes"/>
      <point x="484" y="602"/>
      <point x="477" y="623"/>
      <point x="458" y="639" type="curve" smooth="yes"/>
      <point x="439" y="655"/>
      <point x="399" y="656"/>
      <point x="383" y="631" type="curve" smooth="yes"/>
      <point x="221" y="375" type="line"/>
      <point x="216" y="375" type="line"/>
      <point x="8" y="69" type="line" smooth="yes"/>
      <point x="-6" y="48"/>
      <point x="-2" y="29"/>
    </contour>
    <contour>
      <point x="396" y="6" type="curve" smooth="yes"/>
      <point x="416" y="17"/>
      <point x="424" y="36"/>
      <point x="413" y="61" type="curve" smooth="yes"/>
      <point x="276" y="367" type="line"/>
      <point x="162" y="623" type="line" smooth="yes"/>
      <point x="149" y="651"/>
      <point x="114" y="654"/>
      <point x="92" y="647" type="curve" smooth="yes"/>
      <point x="66" y="637"/>
      <point x="55" y="617"/>
      <point x="69" y="586" type="curve" smooth="yes"/>
      <point x="203" y="286" type="line"/>
      <point x="318" y="28" type="line" smooth="yes"/>
      <point x="331" y="-1"/>
      <point x="373" y="-6"/>
    </contour>
  </outline>
</glyph>
<glyph name="Y" format="2">
  <advance width="490"/>
  <unicode hex="0059"/>
  <outline>
    <contour>
      <point x="79" y="646" type="curve" smooth="yes"/>
      <point x="48" y="636"/>
      <point x="44" y="607"/>
      <point x="55" y="583" type="curve" smooth="yes"/>
      <point x="226" y="223" type="line"/>
      <point x="285" y="314" type="line"/>
      <point x="148" y="620" type="line" smooth="yes"/>
      <point x="138" y="643"/>
      <point x="110" y="657"/>
    </contour>
    <contour>
      <point x="86" y="9" type="curve" smooth="yes"/>
      <point x="106" y="-7"/>
      <point x="148" y="-2"/>
      <point x="162" y="22" type="curve" smooth="yes"/>
      <point x="494" y="578" type="line" smooth="yes"/>
      <point x="508" y="602"/>
      <point x="501" y="630"/>
      <point x="475" y="645" type="curve" smooth="yes"/>
      <point x="454" y="656"/>
      <point x="421" y="650"/>
      <point x="405" y="624" type="curve" smooth="yes"/>
      <point x="75" y="75" type="line" smooth="yes"/>
      <point x="62" y="54"/>
      <point x="67" y="25"/>
    </contour>
  </outline>
</glyph>
<glyph name="backslash" format="2">
  <advance width="406"/>
  <unicode hex="005C"/>
  <outline>
    <contour>
      <point x="119" y="612" type="line" smooth="yes"/>
      <point x="107" y="637"/>
      <point x="88" y="648"/>
      <point x="68" y="648" type="curve" smooth="yes"/>
      <point x="38" y="648"/>
      <point x="1" y="622"/>
      <point x="19" y="586" type="curve" smooth="yes"/>
      <point x="322" y="-22" type="line" smooth="yes"/>
      <point x="333" y="-44"/>
      <point x="352" y="-54"/>
      <point x="371" y="-54" type="curve" smooth="yes"/>
      <point x="403" y="-54"/>
      <point x="438" y="-29"/>
      <point x="421" y="6" type="curve" smooth="yes"/>
    </contour>
  </outline>
</glyph>
<glyph name="underscore" format="2">
  <advance width="515"/>
  <unicode hex="005F"/>
  <outline>
    <contour>
      <point x="364" y="-99" type="line" smooth="yes"/>
      <point x="395" y="-99"/>
      <point x="415" y="-79"/>
      <point x="413" y="-54" type="curve" smooth="yes"/>
      <point x="411" y="-30"/>
      <point x="389" y="-10"/>
      <point x="358" y="-10" type="curve" smooth="yes"/>
      <point x="69" y="-10" type="line" smooth="yes"/>
      <point x="37" y="-10"/>
      <point x="18" y="-30"/>
      <point x="20" y="-55" type="curve" smooth="yes"/>
      <point x="22" y="-79"/>
      <point x="45" y="-99"/>
      <point x="75" y="-99" type="curve" smooth="yes"/>
    </contour>
  </outline>
</glyph>
<glyph name="grave" format="2">
  <advance width="325"/>
  <unicode hex="0060"/>
  <outline>
    <contour>
      <point x="212" y="669" type="line" smooth="yes"/>
      <point x="202" y="690"/>
      <point x="177" y="700"/>
      <point x="157" y="700" type="curve" smooth="yes"/>
      <point x="124" y="698"/>
      <point x="96" y="669"/>
      <point x="124" y="630" type="curve" smooth="yes"/>
      <point x="187" y="542" type="line" smooth="yes"/>
      <point x="207" y="515"/>
      <point x="232" y="508"/>
      <point x="251" y="519" type="curve" smooth="yes"/>
      <point x="269" y="530"/>
      <point x="271" y="547"/>
      <point x="258" y="573" type="curve" smooth="yes"/>
    </contour>
  </outline>
</glyph>
<glyph name="b" format="2">
  <advance width="383"/>
  <unicode hex="0062"/>
  <outline>
    <contour>
      <point x="10" y="44" type="line" smooth="yes"/>
      <point x="7" y="18"/>
      <point x="26" y="0"/>
      <point x="53" y="0" type="curve" smooth="yes"/>
      <point x="98" y="0" type="line"/>
      <point x="163" y="599" type="line" smooth="yes"/>
      <point x="167" y="632"/>
      <point x="148" y="650"/>
      <point x="121" y="650" type="curve" smooth="yes"/>
      <point x="101" y="650"/>
      <point x="74" y="640"/>
      <point x="70" y="607" type="curve" smooth="yes"/>
    </contour>
    <contour>
      <point x="323" y="245" type="curve" smooth="yes"/>
      <point x="323" y="312"/>
      <point x="282" y="354"/>
      <point x="227" y="354" type="curve" smooth="yes"/>
      <point x="185" y="354"/>
      <point x="131" y="312"/>
      <point x="105" y="277" type="curve"/>
      <point x="91" y="153" type="line"/>
      <point x="138" y="239"/>
      <point x="190" y="267"/>
      <point x="209" y="267" type="curve" smooth="yes"/>
      <point x="227" y="267"/>
      <point x="237" y="249"/>
      <point x="237" y="221" type="curve" smooth="yes"/>
      <point x="237" y="172"/>
      <point x="228" y="82"/>
      <point x="115" y="82" type="curve" smooth="yes"/>
      <point x="66" y="82" type="line"/>
      <point x="56" y="0" type="line"/>
      <point x="118" y="0" type="line" smooth="yes"/>
      <point x="263" y="0"/>
      <point x="323" y="116"/>
    </contour>
  </outline>
</glyph>
<glyph name="c" format="2">
  <advance width="308"/>
  <unicode hex="0063"/>
  <outline>
    <contour>
      <point x="88" y="-4" type="curve" smooth="yes"/>
      <point x="156" y="-4"/>
      <point x="213" y="56"/>
      <point x="248" y="121" type="curve" smooth="yes"/>
      <point x="254" y="132"/>
      <point x="253" y="159"/>
      <point x="227" y="172" type="curve" smooth="yes"/>
      <point x="201" y="185"/>
      <point x="175" y="179"/>
      <point x="167" y="164" type="curve" smooth="yes"/>
      <point x="145" y="122"/>
      <point x="115" y="83"/>
      <point x="98" y="83" type="curve" smooth="yes"/>
      <point x="84" y="83"/>
      <point x="75" y="99"/>
      <point x="77" y="118" type="curve" smooth="yes"/>
      <point x="82" y="164"/>
      <point x="92" y="264"/>
      <point x="151" y="264" type="curve" smooth="yes"/>
      <point x="162" y="264"/>
      <point x="191" y="262"/>
      <point x="213" y="259" type="curve" smooth="yes"/>
      <point x="233" y="256"/>
      <point x="252" y="256"/>
      <point x="262" y="284" type="curve" smooth="yes"/>
      <point x="273" y="315"/>
      <point x="260" y="334"/>
      <point x="244" y="340" type="curve" smooth="yes"/>
      <point x="230" y="345"/>
      <point x="189" y="350"/>
      <point x="158" y="350" type="curve" smooth="yes"/>
      <point x="28" y="350"/>
      <point x="0" y="233"/>
      <point x="-12" y="120" type="curve" smooth="yes"/>
      <point x="-23" y="24"/>
      <point x="39" y="-4"/>
    </contour>
  </outline>
</glyph>
<glyph name="e" format="2">
  <advance width="326"/>
  <unicode hex="0065"/>
  <outline>
    <contour>
      <point x="88" y="-4" type="curve" smooth="yes"/>
      <point x="177" y="-4"/>
      <point x="219" y="45"/>
      <point x="238" y="71" type="curve" smooth="yes"/>
      <point x="261" y="102"/>
      <point x="247" y="130"/>
      <point x="232" y="141" type="curve" smooth="yes"/>
      <point x="211" y="155"/>
      <point x="190" y="145"/>
      <point x="171" y="120" type="curve" smooth="yes"/>
      <point x="160" y="106"/>
      <point x="137" y="81"/>
      <point x="99" y="81" type="curve" smooth="yes"/>
      <point x="86" y="81"/>
      <point x="85" y="102"/>
      <point x="86" y="118" type="curve" smooth="yes"/>
      <point x="89" y="177"/>
      <point x="113" y="281"/>
      <point x="168" y="281" type="curve" smooth="yes"/>
      <point x="182" y="281"/>
      <point x="196" y="278"/>
      <point x="194" y="270" type="curve" smooth="yes"/>
      <point x="183" y="230"/>
      <point x="93" y="202"/>
      <point x="58" y="202" type="curve"/>
      <point x="50" y="136" type="line"/>
      <point x="156" y="136"/>
      <point x="246" y="180"/>
      <point x="275" y="251" type="curve" smooth="yes"/>
      <point x="296" y="303"/>
      <point x="265" y="350"/>
      <point x="181" y="351" type="curve" smooth="yes"/>
      <point x="51" y="352"/>
      <point x="2" y="247"/>
      <point x="0" y="117" type="curve" smooth="yes"/>
      <point x="-1" y="19"/>
      <point x="45" y="-4"/>
    </contour>
  </outline>
</glyph>
<glyph name="f" format="2">
  <advance width="270"/>
  <unicode hex="0066"/>
  <outline>
    <contour>
      <point x="71" y="-2" type="curve" smooth="yes"/>
      <point x="98" y="-2"/>
      <point x="120" y="18"/>
      <point x="123" y="42" type="curve" smooth="yes"/>
      <point x="172" y="502" type="line" smooth="yes"/>
      <point x="176" y="541"/>
      <point x="193" y="560"/>
      <point x="213" y="560" type="curve" smooth="yes"/>
      <point x="229" y="560"/>
      <point x="244" y="556"/>
      <point x="252" y="553" type="curve" smooth="yes"/>
      <point x="266" y="548"/>
      <point x="286" y="550"/>
      <point x="300" y="578" type="curve" smooth="yes"/>
      <point x="313" y="604"/>
      <point x="309" y="624"/>
      <point x="289" y="634" type="curve" smooth="yes"/>
      <point x="262" y="648"/>
      <point x="240" y="650"/>
      <point x="199" y="650" type="curve" smooth="yes"/>
      <point x="148" y="650"/>
      <point x="88" y="614"/>
      <point x="78" y="519" type="curve" smooth="yes"/>
      <point x="28" y="49" type="line" smooth="yes"/>
      <point x="26" y="26"/>
      <point x="37" y="-2"/>
    </contour>
    <contour>
      <point x="-32" y="307" type="curve" smooth="yes"/>
      <point x="-31" y="283"/>
      <point x="-12" y="265"/>
      <point x="19" y="265" type="curve" smooth="yes"/>
      <point x="202" y="265" type="line" smooth="yes"/>
      <point x="232" y="265"/>
      <point x="250" y="281"/>
      <point x="249" y="307" type="curve" smooth="yes"/>
      <point x="247" y="331"/>
      <point x="229" y="350"/>
      <point x="197" y="350" type="curve" smooth="yes"/>
      <point x="14" y="350" type="line" smooth="yes"/>
      <point x="-17" y="350"/>
      <point x="-34" y="331"/>
    </contour>
  </outline>
</glyph>
<glyph name="h" format="2">
  <advance width="400"/>
  <unicode hex="0068"/>
  <outline>
    <contour>
      <point x="258" y="0" type="curve" smooth="yes"/>
      <point x="294" y="0"/>
      <point x="307" y="18"/>
      <point x="309" y="38" type="curve" smooth="yes"/>
      <point x="327" y="206" type="line" smooth="yes"/>
      <point x="337" y="301"/>
      <point x="294" y="354"/>
      <point x="225" y="354.0" type="curve" smooth="yes"/>
      <point x="177" y="354"/>
      <point x="132" y="324"/>
      <point x="108" y="293" type="curve"/>
      <point x="95" y="173" type="line"/>
      <point x="133" y="242"/>
      <point x="171" y="266"/>
      <point x="202" y="266" type="curve" smooth="yes"/>
      <point x="229.0" y="266.0"/>
      <point x="235" y="239"/>
      <point x="232" y="214" type="curve" smooth="yes"/>
      <point x="214" y="46" type="line" smooth="yes"/>
      <point x="211" y="22"/>
      <point x="226" y="0"/>
    </contour>
    <contour>
      <point x="46" y="-2" type="curve" smooth="yes"/>
      <point x="70" y="-2"/>
      <point x="91" y="11"/>
      <point x="94" y="37" type="curve" smooth="yes"/>
      <point x="153" y="601" type="line" smooth="yes"/>
      <point x="156" y="633"/>
      <point x="136" y="653"/>
      <point x="109" y="653" type="curve" smooth="yes"/>
      <point x="85" y="653"/>
      <point x="61" y="637"/>
      <point x="58" y="609" type="curve" smooth="yes"/>
      <point x="-1" y="45" type="line" smooth="yes"/>
      <point x="-4" y="17"/>
      <point x="19" y="-2"/>
    </contour>
  </outline>
</glyph>
<glyph name="k" format="2">
  <advance width="389"/>
  <unicode hex="006B"/>
  <outline>
    <contour>
      <point x="53" y="-2" type="curve" smooth="yes"/>
      <point x="80" y="-2"/>
      <point x="104" y="11"/>
      <point x="107" y="40" type="curve" smooth="yes"/>
      <point x="165" y="599" type="line" smooth="yes"/>
      <point x="169" y="633"/>
      <point x="147" y="653"/>
      <point x="119" y="653" type="curve" smooth="yes"/>
      <point x="94" y="653"/>
      <point x="72" y="638"/>
      <point x="69" y="608" type="curve" smooth="yes"/>
      <point x="11" y="48" type="line" smooth="yes"/>
      <point x="8" y="19"/>
      <point x="26" y="-2"/>
    </contour>
    <contour>
      <point x="253" y="0" type="curve" smooth="yes"/>
      <point x="273" y="0"/>
      <point x="294" y="13"/>
      <point x="298" y="33" type="curve" smooth="yes"/>
      <point x="300" y="45"/>
      <point x="301" y="57"/>
      <point x="287" y="71" type="curve" smooth="yes"/>
      <point x="202" y="158" type="line"/>
      <point x="187" y="133" type="line"/>
      <point x="267" y="145"/>
      <point x="324" y="207"/>
      <point x="328" y="242" type="curve" smooth="yes"/>
      <point x="334" y="293"/>
      <point x="295" y="353"/>
      <point x="244" y="353" type="curve" smooth="yes"/>
      <point x="194" y="353"/>
      <point x="115" y="301"/>
      <point x="83" y="266" type="curve"/>
      <point x="102" y="186" type="line"/>
      <point x="111" y="206"/>
      <point x="201" y="275"/>
      <point x="235" y="275" type="curve" smooth="yes"/>
      <point x="243" y="275"/>
      <point x="250" y="268"/>
      <point x="250" y="261" type="curve" smooth="yes"/>
      <point x="250" y="236"/>
      <point x="175" y="195"/>
      <point x="114" y="184" type="curve" smooth="yes"/>
      <point x="94" y="180"/>
      <point x="93" y="145"/>
      <point x="112" y="125" type="curve" smooth="yes"/>
      <point x="204" y="27" type="line" smooth="yes"/>
      <point x="219" y="11"/>
      <point x="235" y="0"/>
    </contour>
  </outline>
</glyph>
<glyph name="n" format="2">
  <advance width="400"/>
  <unicode hex="006E"/>
  <outline>
    <contour>
      <point x="43" y="0" type="curve" smooth="yes"/>
      <point x="80" y="0"/>
      <point x="92" y="22"/>
      <point x="94" y="37" type="curve" smooth="yes"/>
      <point x="123" y="302" type="line" smooth="yes"/>
      <point x="126" y="332"/>
      <point x="114" y="350"/>
      <point x="78" y="350" type="curve" smooth="yes"/>
      <point x="46" y="350"/>
      <point x="29" y="328"/>
      <point x="26" y="300" type="curve" smooth="yes"/>
      <point x="-1" y="44" type="line" smooth="yes"/>
      <point x="-4" y="20"/>
      <point x="9" y="0"/>
    </contour>
    <contour>
      <point x="256" y="0" type="curve" smooth="yes"/>
      <point x="292" y="0"/>
      <point x="307" y="17"/>
      <point x="309" y="38" type="curve" smooth="yes"/>
      <point x="327" y="206" type="line" smooth="yes"/>
      <point x="337" y="301"/>
      <point x="294" y="354"/>
      <point x="216" y="354" type="curve" smooth="yes"/>
      <point x="165" y="354"/>
      <point x="128" y="322"/>
      <point x="109" y="289" type="curve"/>
      <point x="96" y="173" type="line"/>
      <point x="131" y="237"/>
      <point x="170" y="266"/>
      <point x="204" y="266" type="curve" smooth="yes"/>
      <point x="228" y="266"/>
      <point x="235" y="243"/>
      <point x="232" y="214" type="curve" smooth="yes"/>
      <point x="214" y="46" type="line" smooth="yes"/>
      <point x="211" y="22"/>
      <point x="224" y="0"/>
    </contour>
  </outline>
</glyph>
<glyph name="r" format="2">
  <advance width="330"/>
  <unicode hex="0072"/>
  <outline>
    <contour>
      <point x="44" y="-1" type="curve" smooth="yes"/>
      <point x="67" y="-1"/>
      <point x="91" y="14"/>
      <point x="94" y="41" type="curve" smooth="yes"/>
      <point x="120" y="297" type="line" smooth="yes"/>
      <point x="123" y="329"/>
      <point x="103" y="351"/>
      <point x="77" y="351" type="curve" smooth="yes"/>
      <point x="55" y="351"/>
      <point x="29" y="336"/>
      <point x="26" y="309" type="curve" smooth="yes"/>
      <point x="-1" y="48" type="line" smooth="yes"/>
      <point x="-4" y="18"/>
      <point x="18" y="-1"/>
    </contour>
    <contour>
      <point x="271" y="230" type="curve" smooth="yes"/>
      <point x="297" y="242"/>
      <point x="308" y="266"/>
      <point x="301" y="290" type="curve" smooth="yes"/>
      <point x="289" y="333"/>
      <point x="256" y="354"/>
      <point x="214" y="354" type="curve" smooth="yes"/>
      <point x="166" y="354"/>
      <point x="131" y="318"/>
      <point x="108" y="295" type="curve"/>
      <point x="95" y="173" type="line"/>
      <point x="130" y="237"/>
      <point x="170" y="266"/>
      <point x="193" y="266" type="curve" smooth="yes"/>
      <point x="201" y="266"/>
      <point x="203" y="260"/>
      <point x="206" y="251" type="curve" smooth="yes"/>
      <point x="216" y="225"/>
      <point x="243" y="217"/>
    </contour>
  </outline>
</glyph>
<glyph name="s" format="2">
  <advance width="312"/>
  <unicode hex="0073"/>
  <outline>
    <contour>
      <point x="119" y="-4" type="curve" smooth="yes"/>
      <point x="169" y="-4"/>
      <point x="229" y="21"/>
      <point x="235" y="88" type="curve" smooth="yes"/>
      <point x="239" y="129"/>
      <point x="217" y="161"/>
      <point x="197" y="178" type="curve" smooth="yes"/>
      <point x="184" y="189"/>
      <point x="159" y="205"/>
      <point x="138" y="218" type="curve" smooth="yes"/>
      <point x="117" y="231"/>
      <point x="92" y="241"/>
      <point x="93" y="254" type="curve" smooth="yes"/>
      <point x="94" y="264"/>
      <point x="110" y="266"/>
      <point x="128" y="266" type="curve" smooth="yes"/>
      <point x="147" y="266"/>
      <point x="171" y="256"/>
      <point x="182" y="251" type="curve" smooth="yes"/>
      <point x="207" y="239"/>
      <point x="240" y="238"/>
      <point x="251" y="260" type="curve" smooth="yes"/>
      <point x="265" y="290"/>
      <point x="246" y="317"/>
      <point x="208" y="336" type="curve" smooth="yes"/>
      <point x="181" y="347"/>
      <point x="149" y="353"/>
      <point x="122" y="353" type="curve" smooth="yes"/>
      <point x="58" y="353"/>
      <point x="7" y="322"/>
      <point x="1" y="261" type="curve" smooth="yes"/>
      <point x="-4" y="215"/>
      <point x="43" y="175"/>
      <point x="73" y="157" type="curve" smooth="yes"/>
      <point x="86" y="149"/>
      <point x="108" y="134"/>
      <point x="117" y="128" type="curve" smooth="yes"/>
      <point x="136" y="115"/>
      <point x="143" y="108"/>
      <point x="143" y="100" type="curve" smooth="yes"/>
      <point x="142" y="90"/>
      <point x="134" y="83"/>
      <point x="114" y="83" type="curve" smooth="yes"/>
      <point x="91" y="83"/>
      <point x="66" y="102"/>
      <point x="51" y="112" type="curve" smooth="yes"/>
      <point x="31" y="125"/>
      <point x="-4" y="119"/>
      <point x="-14" y="95" type="curve" smooth="yes"/>
      <point x="-25" y="68"/>
      <point x="-9" y="46"/>
      <point x="17" y="28" type="curve" smooth="yes"/>
      <point x="40" y="12"/>
      <point x="87" y="-4"/>
    </contour>
  </outline>
</glyph>
<glyph name="t" format="2">
  <advance width="290"/>
  <unicode hex="0074"/>
  <outline>
    <contour>
      <point x="95" y="0" type="curve" smooth="yes"/>
      <point x="120" y="0"/>
      <point x="142" y="9"/>
      <point x="145" y="35" type="curve" smooth="yes"/>
      <point x="203" y="602" type="line" smooth="yes"/>
      <point x="206" y="631"/>
      <point x="183" y="650"/>
      <point x="155" y="650" type="curve" smooth="yes"/>
      <point x="127" y="650"/>
      <point x="105" y="631"/>
      <point x="103" y="611" type="curve" smooth="yes"/>
      <point x="45" y="44" type="line" smooth="yes"/>
      <point x="42" y="12"/>
      <point x="69" y="0"/>
    </contour>
    <contour>
      <point x="-33" y="307" type="curve" smooth="yes"/>
      <point x="-33" y="283"/>
      <point x="-13" y="265"/>
      <point x="19" y="265" type="curve" smooth="yes"/>
      <point x="229" y="265" type="line" smooth="yes"/>
      <point x="261" y="265"/>
      <point x="277" y="283"/>
      <point x="277" y="307" type="curve" smooth="yes"/>
      <point x="277" y="332"/>
      <point x="256" y="350"/>
      <point x="224" y="350" type="curve" smooth="yes"/>
      <point x="14" y="350" type="line" smooth="yes"/>
      <point x="-18" y="350"/>
      <point x="-33" y="332"/>
    </contour>
  </outline>
</glyph>
<glyph name="u" format="2">
  <advance width="407"/>
  <unicode hex="0075"/>
  <outline>
    <contour>
      <point x="256" y="0" type="curve" smooth="yes"/>
      <point x="290" y="0"/>
      <point x="308" y="16"/>
      <point x="311" y="42" type="curve" smooth="yes"/>
      <point x="339" y="306" type="line" smooth="yes"/>
      <point x="342" y="330"/>
      <point x="329" y="350"/>
      <point x="295" y="350" type="curve" smooth="yes"/>
      <point x="258" y="350"/>
      <point x="246" y="328"/>
      <point x="244" y="313" type="curve" smooth="yes"/>
      <point x="215" y="48" type="line" smooth="yes"/>
      <point x="212" y="18"/>
      <point x="224" y="0"/>
    </contour>
    <contour>
      <point x="110" y="-4" type="curve" smooth="yes"/>
      <point x="149" y="-4"/>
      <point x="202" y="31"/>
      <point x="232" y="65" type="curve"/>
      <point x="242" y="170" type="line"/>
      <point x="202" y="107"/>
      <point x="152" y="84"/>
      <point x="129" y="84" type="curve" smooth="yes"/>
      <point x="113" y="84"/>
      <point x="101" y="103"/>
      <point x="104" y="136" type="curve" smooth="yes"/>
      <point x="122" y="304" type="line" smooth="yes"/>
      <point x="125" y="328"/>
      <point x="107" y="350"/>
      <point x="75" y="350" type="curve" smooth="yes"/>
      <point x="39" y="350"/>
      <point x="29" y="327"/>
      <point x="27" y="312" type="curve" smooth="yes"/>
      <point x="9" y="144" type="line" smooth="yes"/>
      <point x="-1" y="49"/>
      <point x="32" y="-4"/>
    </contour>
  </outline>
</glyph>
<glyph name="w" format="2">
  <advance width="567"/>
  <unicode hex="0077"/>
  <outline>
    <contour>
      <point x="87" y="-4" type="curve" smooth="yes"/>
      <point x="173" y="-4"/>
      <point x="229" y="70"/>
      <point x="275" y="188" type="curve"/>
      <point x="288" y="350" type="line"/>
      <point x="261" y="350"/>
      <point x="242" y="339"/>
      <point x="234" y="308" type="curve" smooth="yes"/>
      <point x="184" y="117"/>
      <point x="131" y="79"/>
      <point x="117" y="79" type="curve" smooth="yes"/>
      <point x="104" y="79"/>
      <point x="108" y="113"/>
      <point x="113" y="157" type="curve" smooth="yes"/>
      <point x="128" y="298" type="line" smooth="yes"/>
      <point x="132" y="331"/>
      <point x="108" y="350"/>
      <point x="81" y="350" type="curve" smooth="yes"/>
      <point x="59" y="350"/>
      <point x="34" y="335"/>
      <point x="31" y="308" type="curve" smooth="yes"/>
      <point x="11" y="115" type="line" smooth="yes"/>
      <point x="5" y="56"/>
      <point x="24" y="-4"/>
    </contour>
    <contour>
      <point x="285" y="-4" type="curve" smooth="yes"/>
      <point x="377" y="-4"/>
      <point x="463" y="71"/>
      <point x="527" y="289" type="curve" smooth="yes"/>
      <point x="539" y="329"/>
      <point x="516" y="350"/>
      <point x="484" y="350" type="curve" smooth="yes"/>
      <point x="457" y="350"/>
      <point x="442" y="339"/>
      <point x="433" y="308" type="curve" smooth="yes"/>
      <point x="377" y="115"/>
      <point x="327" y="79"/>
      <point x="316" y="79" type="curve" smooth="yes"/>
      <point x="301" y="79"/>
      <point x="303" y="115"/>
      <point x="308" y="157" type="curve" smooth="yes"/>
      <point x="325" y="298" type="line" smooth="yes"/>
      <point x="329" y="331"/>
      <point x="314" y="350"/>
      <point x="287" y="350" type="curve"/>
      <point x="235" y="188" type="line"/>
      <point x="227" y="134" type="line" smooth="yes"/>
      <point x="214" y="41"/>
      <point x="234" y="-4"/>
    </contour>
  </outline>
</glyph>
<glyph name="y" format="2">
  <advance width="397"/>
  <unicode hex="0079"/>
  <outline>
    <contour>
      <point x="111" y="-4" type="curve" smooth="yes"/>
      <point x="150" y="-4"/>
      <point x="194" y="18"/>
      <point x="220" y="35" type="curve"/>
      <point x="232" y="150" type="line"/>
      <point x="192" y="87"/>
      <point x="146" y="84"/>
      <point x="123" y="84" type="curve" smooth="yes"/>
      <point x="107" y="84"/>
      <point x="102" y="111"/>
      <point x="105" y="136" type="curve" smooth="yes"/>
      <point x="123" y="304" type="line" smooth="yes"/>
      <point x="126" y="328"/>
      <point x="113" y="350"/>
      <point x="81" y="350" type="curve" smooth="yes"/>
      <point x="45" y="350"/>
      <point x="30" y="327"/>
      <point x="28" y="312" type="curve" smooth="yes"/>
      <point x="10" y="144" type="line" smooth="yes"/>
      <point x="0" y="49"/>
      <point x="33" y="-4"/>
    </contour>
    <contour>
      <point x="-26" y="-218" type="curve" smooth="yes"/>
      <point x="-40" y="-251"/>
      <point x="-23" y="-268"/>
      <point x="-7" y="-278" type="curve" smooth="yes"/>
      <point x="7" y="-287"/>
      <point x="49" y="-300"/>
      <point x="97" y="-300" type="curve" smooth="yes"/>
      <point x="211" y="-300"/>
      <point x="275" y="-207"/>
      <point x="290" y="-65" type="curve" smooth="yes"/>
      <point x="329" y="305" type="line" smooth="yes"/>
      <point x="332" y="335"/>
      <point x="308" y="350"/>
      <point x="278" y="350" type="curve" smooth="yes"/>
      <point x="250" y="350"/>
      <point x="237" y="335"/>
      <point x="234" y="306" type="curve" smooth="yes"/>
      <point x="196" y="-52" type="line" smooth="yes"/>
      <point x="185" y="-152"/>
      <point x="154" y="-206"/>
      <point x="94" y="-206" type="curve" smooth="yes"/>
      <point x="75" y="-206"/>
      <point x="58" y="-199"/>
      <point x="41" y="-193" type="curve" smooth="yes"/>
      <point x="21" y="-186"/>
      <point x="-12" y="-183"/>
    </contour>
  </outline>
</glyph>
<glyph name="exclamdown" format="2">
  <advance width="270"/>
  <unicode hex="00A1"/>
  <outline>
    <contour>
      <point x="192" y="399" type="line" smooth="yes"/>
      <point x="196" y="433"/>
      <point x="169" y="450"/>
      <point x="145" y="452" type="curve" smooth="yes"/>
      <point x="121" y="454"/>
      <point x="94" y="437"/>
      <point x="92" y="407" type="curve" smooth="yes"/>
      <point x="53" y="47" type="line" smooth="yes"/>
      <point x="50" y="17"/>
      <point x="76" y="-2"/>
      <point x="104" y="0" type="curve" smooth="yes"/>
      <point x="126" y="0"/>
      <point x="151" y="14"/>
      <point x="153" y="39" type="curve" smooth="yes"/>
    </contour>
    <contour>
      <point x="167" y="540" type="curve" smooth="yes"/>
      <point x="198" y="540"/>
      <point x="218" y="566"/>
      <point x="216" y="594" type="curve" smooth="yes"/>
      <point x="214" y="623"/>
      <point x="191" y="650"/>
      <point x="160" y="650" type="curve" smooth="yes"/>
      <point x="130" y="650"/>
      <point x="104" y="623"/>
      <point x="106" y="594" type="curve" smooth="yes"/>
      <point x="108" y="566"/>
      <point x="137" y="540"/>
    </contour>
  </outline>
</glyph>
<glyph name="periodcentered" format="2">
  <advance width="231"/>
  <unicode hex="00B7"/>
  <outline>
    <contour>
      <point x="102" y="121" type="curve" smooth="yes"/>
      <point x="131" y="121"/>
      <point x="156" y="149"/>
      <point x="154" y="178" type="curve" smooth="yes"/>
      <point x="151" y="209"/>
      <point x="123" y="231"/>
      <point x="94" y="231" type="curve" smooth="yes"/>
      <point x="63" y="231"/>
      <point x="42" y="207"/>
      <point x="44" y="178" type="curve" smooth="yes"/>
      <point x="45" y="151"/>
      <point x="71" y="121"/>
    </contour>
  </outline>
</glyph>
<glyph name="tilde" format="2">
  <advance width="442"/>
  <unicode hex="02DC"/>
  <outline>
    <contour>
      <point x="251" y="139" type="curve" smooth="yes"/>
      <point x="288" y="139"/>
      <point x="312" y="151"/>
      <point x="330" y="159" type="curve" smooth="yes"/>
      <point x="357" y="172"/>
      <point x="368" y="183"/>
      <point x="367" y="203" type="curve" smooth="yes"/>
      <point x="365" y="231"/>
      <point x="331" y="261"/>
      <point x="300" y="245" type="curve" smooth="yes"/>
      <point x="277" y="233"/>
      <point x="272" y="226"/>
      <point x="253" y="226" type="curve" smooth="yes"/>
      <point x="236" y="226"/>
      <point x="192" y="262"/>
      <point x="153" y="262" type="curve" smooth="yes"/>
      <point x="122" y="262"/>
      <point x="100" y="252"/>
      <point x="85" y="245" type="curve" smooth="yes"/>
      <point x="59" y="234"/>
      <point x="45" y="223"/>
      <point x="47" y="203" type="curve" smooth="yes"/>
      <point x="49" y="171"/>
      <point x="83" y="144"/>
      <point x="113" y="159" type="curve" smooth="yes"/>
      <point x="130" y="168"/>
      <point x="138" y="175"/>
      <point x="151" y="175" type="curve" smooth="yes"/>
      <point x="171" y="175"/>
      <point x="214" y="139"/>
    </contour>
  </outline>
</glyph>
<glyph name="bullet" format="2">
  <advance width="322"/>
  <unicode hex="2022"/>
  <outline>
    <contour>
      <point x="167" y="254" type="curve" smooth="yes"/>
      <point x="221" y="254"/>
      <point x="267" y="301"/>
      <point x="263" y="355" type="curve" smooth="yes"/>
      <point x="259" y="409"/>
      <point x="208" y="454"/>
      <point x="154" y="454" type="curve" smooth="yes"/>
      <point x="99" y="454"/>
      <point x="59" y="408"/>
      <point x="63" y="355" type="curve" smooth="yes"/>
      <point x="67" y="304"/>
      <point x="111" y="254"/>
    </contour>
  </outline>
</glyph>
<glyph name="ellipsis" format="2">
  <advance width="522"/>
  <unicode hex="2026"/>
  <outline>
    <contour>
      <point x="377" y="-31" type="curve" smooth="yes"/>
      <point x="405" y="-31"/>
      <point x="430" y="-6"/>
      <point x="428" y="25" type="curve" smooth="yes"/>
      <point x="426" y="56"/>
      <point x="397" y="79"/>
      <point x="368" y="79" type="curve" smooth="yes"/>
      <point x="340" y="79"/>
      <point x="316" y="57"/>
      <point x="318" y="25" type="curve" smooth="yes"/>
      <point x="320" y="-6"/>
      <point x="348" y="-31"/>
    </contour>
    <contour>
      <point x="87" y="-31" type="curve" smooth="yes"/>
      <point x="115" y="-31"/>
      <point x="140" y="-6"/>
      <point x="138" y="25" type="curve" smooth="yes"/>
      <point x="136" y="56"/>
      <point x="107" y="79"/>
      <point x="78" y="79" type="curve" smooth="yes"/>
      <point x="50" y="79"/>
      <point x="26" y="57"/>
      <point x="28" y="25" type="curve" smooth="yes"/>
      <point x="30" y="-6"/>
      <point x="58" y="-31"/>
    </contour>
    <contour>
      <point x="232" y="-30" type="curve" smooth="yes"/>
      <point x="260" y="-30"/>
      <point x="285" y="-6"/>
      <point x="283" y="25" type="curve" smooth="yes"/>
      <point x="281" y="56"/>
      <point x="252" y="79"/>
      <point x="224" y="79" type="curve" smooth="yes"/>
      <point x="195" y="79"/>
      <point x="171" y="56"/>
      <point x="173" y="25" type="curve" smooth="yes"/>
      <point x="175" y="-6"/>
      <point x="203" y="-30"/>
    </contour>
  </outline>
</glyph>
<glyph name="lessequal" format="2">
  <advance width="422"/>
  <unicode hex="2264"/>
  <outline>
    <contour>
      <point x="338" y="322" type="line" smooth="yes"/>
      <point x="365" y="337"/>
      <point x="372" y="362"/>
      <point x="353" y="386" type="curve" smooth="yes"/>
      <point x="340" y="403"/>
      <point x="313" y="408"/>
      <point x="286" y="393" type="curve" smooth="yes"/>
      <point x="76" y="281" type="line" smooth="yes"/>
      <point x="49" y="266"/>
      <point x="47" y="242"/>
      <point x="65" y="221" type="curve" smooth="yes"/>
      <point x="79" y="201"/>
      <point x="104" y="197"/>
      <point x="128" y="210" type="curve" smooth="yes"/>
    </contour>
    <contour>
      <point x="286" y="57" type="line" smooth="yes"/>
      <point x="316" y="57"/>
      <point x="336" y="75"/>
      <point x="334" y="98" type="curve" smooth="yes"/>
      <point x="332" y="122"/>
      <point x="310" y="142"/>
      <point x="280" y="142" type="curve" smooth="yes"/>
      <point x="84" y="142" type="line" smooth="yes"/>
      <point x="54" y="142"/>
      <point x="34" y="122"/>
      <point x="36" y="98" type="curve" smooth="yes"/>
      <point x="38" y="74"/>
      <point x="60" y="57"/>
      <point x="90" y="57" type="curve" smooth="yes"/>
    </contour>
    <contour>
      <point x="103" y="202" type="line"/>
      <point x="304" y="202" type="line" smooth="yes"/>
      <point x="332" y="202"/>
      <point x="352" y="222"/>
      <point x="351" y="245" type="curve" smooth="yes"/>
      <point x="351" y="272"/>
      <point x="324" y="287"/>
      <point x="292" y="287" type="curve" smooth="yes"/>
      <point x="99" y="287" type="line"/>
    </contour>
  </outline>
</glyph>
<glyph name="K.ss01" format="2">
  <advance width="615"/>
  <outline>
    <contour>
      <point x="239" y="320" type="line"/>
      <point x="518" y="562" type="line" smooth="yes"/>
      <point x="531" y="574"/>
      <point x="542" y="587"/>
      <point x="543" y="602" type="curve" smooth="yes"/>
      <point x="544" y="625"/>
      <point x="525" y="650"/>
      <point x="496" y="650" type="curve" smooth="yes"/>
      <point x="480" y="650"/>
      <point x="460" y="644"/>
      <point x="445" y="631" type="curve" smooth="yes"/>
      <point x="142" y="368" type="line"/>
      <point x="145" y="326" type="line"/>
    </contour>
    <contour>
      <point x="144" y="338" type="line"/>
      <point x="385" y="24" type="line" smooth="yes"/>
      <point x="395" y="12"/>
      <point x="419" y="0"/>
      <point x="443" y="0" type="curve" smooth="yes"/>
      <point x="482" y="0"/>
      <point x="520" y="15"/>
      <point x="542" y="52" type="curve" smooth="yes"/>
      <point x="559" y="81"/>
      <point x="562" y="98"/>
      <point x="559" y="110" type="curve" smooth="yes"/>
      <point x="555" y="125"/>
      <point x="542" y="138"/>
      <point x="528" y="142" type="curve" smooth="yes"/>
      <point x="516" y="145"/>
      <point x="504" y="141"/>
      <point x="497" y="132" type="curve" smooth="yes"/>
      <point x="492" y="126" type="line" smooth="yes"/>
      <point x="486" y="119"/>
      <point x="474" y="93"/>
      <point x="469" y="93" type="curve" smooth="yes"/>
      <point x="463" y="93"/>
      <point x="450" y="96"/>
      <point x="441" y="108" type="curve" smooth="yes"/>
      <point x="242" y="368" type="line"/>
      <point x="141" y="382" type="line"/>
    </contour>
    <contour>
      <point x="207" y="597" type="line" smooth="yes"/>
      <point x="211" y="636"/>
      <point x="185" y="650"/>
      <point x="161" y="650" type="curve" smooth="yes"/>
      <point x="135" y="650"/>
      <point x="111" y="637"/>
      <point x="108" y="609" type="curve" smooth="yes"/>
      <point x="48" y="54" type="line" smooth="yes"/>
      <point x="45" y="24"/>
      <point x="68" y="0"/>
      <point x="100" y="0" type="curve" smooth="yes"/>
      <point x="131" y="0"/>
      <point x="145" y="19"/>
      <point x="148" y="45" type="curve" smooth="yes"/>
    </contour>
  </outline>
</glyph>
<glyph name="M.ss01" format="2">
  <advance width="952"/>
  <outline>
    <contour>
      <point x="407" y="100" type="line"/>
      <point x="216" y="620" type="line" smooth="yes"/>
      <point x="208" y="641"/>
      <point x="182" y="650"/>
      <point x="156" y="650" type="curve"/>
      <point x="160" y="491" type="line"/>
      <point x="328" y="35" type="line" smooth="yes"/>
      <point x="336" y="13"/>
      <point x="365" y="0"/>
      <point x="401" y="0" type="curve"/>
    </contour>
    <contour>
      <point x="196" y="498" type="line"/>
      <point x="159" y="650" type="line"/>
      <point x="127" y="650"/>
      <point x="110" y="636"/>
      <point x="107" y="609" type="curve" smooth="yes"/>
      <point x="49" y="49" type="line" smooth="yes"/>
      <point x="46" y="21"/>
      <point x="66" y="0"/>
      <point x="95" y="0" type="curve" smooth="yes"/>
      <point x="128" y="0"/>
      <point x="147" y="19"/>
      <point x="149" y="42" type="curve" smooth="yes"/>
    </contour>
    <contour>
      <point x="683" y="464" type="line"/>
      <point x="651" y="156" type="line" smooth="yes"/>
      <point x="642" y="72"/>
      <point x="663" y="0"/>
      <point x="742" y="0" type="curve" smooth="yes"/>
      <point x="781" y="0"/>
      <point x="808" y="15"/>
      <point x="830" y="52" type="curve" smooth="yes"/>
      <point x="847" y="81"/>
      <point x="848" y="94"/>
      <point x="845" y="106" type="curve" smooth="yes"/>
      <point x="841" y="121"/>
      <point x="830" y="134"/>
      <point x="816" y="138" type="curve" smooth="yes"/>
      <point x="804" y="141"/>
      <point x="790" y="141"/>
      <point x="783" y="132" type="curve" smooth="yes"/>
      <point x="778" y="126" type="line" smooth="yes"/>
      <point x="772" y="119"/>
      <point x="766" y="89"/>
      <point x="753" y="89" type="curve" smooth="yes"/>
      <point x="745" y="89"/>
      <point x="746" y="116"/>
      <point x="756" y="208" type="curve" smooth="yes"/>
      <point x="797" y="597" type="line" smooth="yes"/>
      <point x="800" y="629"/>
      <point x="784" y="650"/>
      <point x="751" y="650" type="curve"/>
    </contour>
    <contour>
      <point x="388" y="103" type="line"/>
      <point x="395" y="0" type="line"/>
      <point x="431" y="0"/>
      <point x="448" y="13"/>
      <point x="461" y="35" type="curve" smooth="yes"/>
      <point x="711" y="462" type="line"/>
      <point x="753" y="650" type="line"/>
      <point x="717" y="650"/>
      <point x="703" y="641"/>
      <point x="691" y="620" type="curve" smooth="yes"/>
    </contour>
  </outline>
</glyph>
<glyph name="Q.ss01" format="2">
  <advance width="606"/>
  <outline>
    <contour>
      <point x="241" y="94" type="curve" smooth="yes"/>
      <point x="364" y="-24" type="line" smooth="yes"/>
      <point x="378" y="-37"/>
      <point x="403" y="-48"/>
      <point x="422" y="-48" type="curve" smooth="yes"/>
      <point x="461" y="-48"/>
      <point x="488" y="-29"/>
      <point x="510" y="8" type="curve" smooth="yes"/>
      <point x="527" y="37"/>
      <point x="528" y="50"/>
      <point x="525" y="62" type="curve" smooth="yes"/>
      <point x="521" y="77"/>
      <point x="510" y="90"/>
      <point x="496" y="94" type="curve" smooth="yes"/>
      <point x="484" y="97"/>
      <point x="474" y="93"/>
      <point x="467" y="84" type="curve" smooth="yes"/>
      <point x="462" y="78" type="line" smooth="yes"/>
      <point x="456" y="71"/>
      <point x="447" y="36"/>
      <point x="441" y="36" type="curve" smooth="yes"/>
      <point x="435" y="36"/>
      <point x="429" y="42"/>
      <point x="418" y="52" type="curve" smooth="yes"/>
      <point x="308" y="158" type="line"/>
      <point x="280" y="180"/>
      <point x="245" y="179"/>
      <point x="232" y="161" type="curve" smooth="yes"/>
      <point x="217" y="143"/>
      <point x="216" y="118"/>
    </contour>
    <contour>
      <point x="213" y="-4" type="curve" smooth="yes"/>
      <point x="383" y="-4"/>
      <point x="508" y="242"/>
      <point x="527" y="429" type="curve" smooth="yes"/>
      <point x="539" y="548"/>
      <point x="450" y="652"/>
      <point x="322" y="652" type="curve" smooth="yes"/>
      <point x="194" y="652"/>
      <point x="123" y="555"/>
      <point x="91" y="410" type="curve" smooth="yes"/>
      <point x="83" y="370"/>
      <point x="77" y="325"/>
      <point x="77" y="283" type="curve" smooth="yes"/>
      <point x="75" y="150"/>
      <point x="93" y="-4"/>
    </contour>
    <contour>
      <point x="223" y="86" type="curve" smooth="yes"/>
      <point x="181" y="86"/>
      <point x="176" y="187"/>
      <point x="177" y="269" type="curve" smooth="yes"/>
      <point x="177" y="308"/>
      <point x="181" y="348"/>
      <point x="187" y="378" type="curve" smooth="yes"/>
      <point x="213" y="505"/>
      <point x="247" y="562"/>
      <point x="324" y="562" type="curve" smooth="yes"/>
      <point x="428" y="562"/>
      <point x="432" y="482"/>
      <point x="426" y="425" type="curve" smooth="yes"/>
      <point x="410" y="279"/>
      <point x="300" y="86"/>
    </contour>
  </outline>
</glyph>
<glyph name="U.ss01" format="2">
  <advance width="698"/>
  <outline>
    <contour>
      <point x="435" y="385" type="line"/>
      <point x="458" y="543" type="line"/>
      <point x="439" y="543" type="line"/>
      <point x="433" y="510" type="line" smooth="yes"/>
      <point x="417" y="423"/>
      <point x="388" y="364"/>
      <point x="371" y="337" type="curve" smooth="yes"/>
      <point x="328" y="265"/>
      <point x="224" y="86"/>
      <point x="177" y="86" type="curve" smooth="yes"/>
      <point x="158" y="86"/>
      <point x="156" y="125"/>
      <point x="163" y="185" type="curve" smooth="yes"/>
      <point x="209" y="600" type="line" smooth="yes"/>
      <point x="212" y="629"/>
      <point x="190" y="650"/>
      <point x="161" y="650" type="curve" smooth="yes"/>
      <point x="128" y="651"/>
      <point x="111" y="624"/>
      <point x="109" y="606" type="curve" smooth="yes"/>
      <point x="63" y="195" type="line" smooth="yes"/>
      <point x="48" y="57"/>
      <point x="94" y="-4"/>
      <point x="167" y="-4" type="curve" smooth="yes"/>
      <point x="252" y="-4"/>
      <point x="335" y="76"/>
      <point x="419" y="215" type="curve"/>
    </contour>
    <contour>
      <point x="444" y="613" type="curve" smooth="yes"/>
      <point x="397" y="156" type="line" smooth="yes"/>
      <point x="388" y="73"/>
      <point x="409" y="0"/>
      <point x="488" y="0" type="curve" smooth="yes"/>
      <point x="527" y="0"/>
      <point x="554" y="15"/>
      <point x="576" y="52" type="curve" smooth="yes"/>
      <point x="593" y="81"/>
      <point x="594" y="94"/>
      <point x="591" y="106" type="curve" smooth="yes"/>
      <point x="587" y="121"/>
      <point x="576" y="134"/>
      <point x="562" y="138" type="curve" smooth="yes"/>
      <point x="550" y="141"/>
      <point x="538" y="139"/>
      <point x="529" y="132" type="curve"/>
      <point x="524" y="126" type="line" smooth="yes"/>
      <point x="518" y="119"/>
      <point x="512" y="89"/>
      <point x="499" y="89" type="curve" smooth="yes"/>
      <point x="491" y="89"/>
      <point x="492" y="115"/>
      <point x="502" y="208" type="curve" smooth="yes"/>
      <point x="543" y="600" type="line" smooth="yes"/>
      <point x="546" y="632"/>
      <point x="522" y="651"/>
      <point x="494" y="651" type="curve" smooth="yes"/>
      <point x="472" y="651"/>
      <point x="446" y="636"/>
    </contour>
  </outline>
</glyph>
<glyph name="a.ss01" format="2">
  <advance width="445"/>
  <outline>
    <contour>
      <point x="224" y="47" type="curve"/>
      <point x="238" y="195" type="line"/>
      <point x="189" y="112"/>
      <point x="153" y="83"/>
      <point x="131" y="83" type="curve" smooth="yes"/>
      <point x="113" y="83"/>
      <point x="103" y="101"/>
      <point x="106" y="130" type="curve" smooth="yes"/>
      <point x="111" y="175"/>
      <point x="107" y="263"/>
      <point x="220" y="263" type="curve" smooth="yes"/>
      <point x="226" y="263"/>
      <point x="240" y="263"/>
      <point x="247" y="263" type="curve"/>
      <point x="256" y="350" type="line"/>
      <point x="248" y="350"/>
      <point x="223" y="350"/>
      <point x="216" y="350" type="curve" smooth="yes"/>
      <point x="60" y="350"/>
      <point x="32" y="261"/>
      <point x="17" y="120" type="curve" smooth="yes"/>
      <point x="6" y="21"/>
      <point x="68" y="-4"/>
      <point x="125" y="-4" type="curve" smooth="yes"/>
      <point x="155" y="-4"/>
      <point x="193" y="17"/>
    </contour>
    <contour>
      <point x="324" y="301" type="line" smooth="yes"/>
      <point x="327" y="337"/>
      <point x="312" y="350"/>
      <point x="233" y="350" type="curve"/>
      <point x="212" y="156" type="line" smooth="yes"/>
      <point x="203" y="72"/>
      <point x="221" y="0"/>
      <point x="300" y="0" type="curve" smooth="yes"/>
      <point x="339" y="0"/>
      <point x="366" y="15"/>
      <point x="388" y="52" type="curve" smooth="yes"/>
      <point x="405" y="81"/>
      <point x="406" y="94"/>
      <point x="403" y="106" type="curve" smooth="yes"/>
      <point x="399" y="121"/>
      <point x="388" y="134"/>
      <point x="374" y="138" type="curve" smooth="yes"/>
      <point x="362" y="141"/>
      <point x="350" y="139"/>
      <point x="341" y="132" type="curve"/>
      <point x="336" y="126" type="line" smooth="yes"/>
      <point x="330" y="119"/>
      <point x="324" y="89"/>
      <point x="311" y="89" type="curve" smooth="yes"/>
      <point x="303" y="89"/>
      <point x="306" y="116"/>
      <point x="315" y="208" type="curve" smooth="yes"/>
    </contour>
  </outline>
</glyph>
<glyph name="asciicircum.c2sc" format="2">
  <advance width="489"/>
  <outline>
    <contour>
      <point x="291" y="409" type="line" smooth="yes"/>
      <point x="316" y="430"/>
      <point x="312" y="457"/>
      <point x="293" y="475" type="curve" smooth="yes"/>
      <point x="274" y="493"/>
      <point x="240" y="497"/>
      <point x="218" y="478" type="curve" smooth="yes"/>
      <point x="93" y="367" type="line" smooth="yes"/>
      <point x="71" y="347"/>
      <point x="76" y="321"/>
      <point x="91" y="304" type="curve" smooth="yes"/>
      <point x="110" y="282"/>
      <point x="145" y="279"/>
      <point x="168" y="299" type="curve" smooth="yes"/>
    </contour>
    <contour>
      <point x="293" y="475" type="line"/>
      <point x="222" y="413" type="line"/>
      <point x="322" y="304" type="line" smooth="yes"/>
      <point x="342" y="281"/>
      <point x="377" y="283"/>
      <point x="394" y="300" type="curve" smooth="yes"/>
      <point x="412" y="317"/>
      <point x="414" y="342"/>
      <point x="393" y="365" type="curve" smooth="yes"/>
    </contour>
  </outline>
</glyph>
<glyph name="asterisk.c2sc" format="2">
  <advance width="377"/>
  <outline>
    <contour>
      <point x="278" y="386" type="line" smooth="yes"/>
      <point x="304" y="402"/>
      <point x="313" y="425"/>
      <point x="298" y="449" type="curve" smooth="yes"/>
      <point x="286" y="465"/>
      <point x="256" y="473"/>
      <point x="233" y="459" type="curve" smooth="yes"/>
      <point x="103" y="381" type="line"/>
      <point x="82" y="366"/>
      <point x="71" y="343"/>
      <point x="84" y="322" type="curve" smooth="yes"/>
      <point x="95" y="303"/>
      <point x="126" y="295"/>
      <point x="153" y="311" type="curve" smooth="yes"/>
    </contour>
    <contour>
      <point x="225" y="318" type="line"/>
      <point x="252" y="302"/>
      <point x="281" y="307"/>
      <point x="292" y="324" type="curve" smooth="yes"/>
      <point x="303" y="343"/>
      <point x="300" y="364"/>
      <point x="275" y="381" type="curve" smooth="yes"/>
      <point x="162" y="460" type="line" smooth="yes"/>
      <point x="139" y="476"/>
      <point x="110" y="471"/>
      <point x="98" y="454" type="curve" smooth="yes"/>
      <point x="85" y="435"/>
      <point x="90" y="413"/>
      <point x="115" y="395" type="curve" smooth="yes"/>
    </contour>
    <contour>
      <point x="246" y="456" type="line" smooth="yes"/>
      <point x="249" y="488"/>
      <point x="227" y="508"/>
      <point x="203" y="508" type="curve" smooth="yes"/>
      <point x="182" y="508"/>
      <point x="160" y="491"/>
      <point x="157" y="464" type="curve" smooth="yes"/>
      <point x="142" y="322" type="line" smooth="yes"/>
      <point x="139" y="293"/>
      <point x="157" y="276"/>
      <point x="178" y="271" type="curve" smooth="yes"/>
      <point x="200" y="266"/>
      <point x="228" y="283"/>
      <point x="231" y="314" type="curve" smooth="yes"/>
    </contour>
  </outline>
</glyph>
<glyph name="d.sc" format="2">
  <advance width="395"/>
  <outline>
    <contour>
      <point x="98" y="0" type="line"/>
      <point x="131" y="0" type="line" smooth="yes"/>
      <point x="232" y="0"/>
      <point x="327" y="78"/>
      <point x="341" y="205" type="curve" smooth="yes"/>
      <point x="351" y="313"/>
      <point x="252" y="396"/>
      <point x="144" y="396" type="curve" smooth="yes"/>
      <point x="126" y="396" type="line"/>
      <point x="142" y="316" type="line"/>
      <point x="153" y="316" type="line" smooth="yes"/>
      <point x="210" y="316"/>
      <point x="251" y="270"/>
      <point x="245" y="216" type="curve" smooth="yes"/>
      <point x="238" y="129"/>
      <point x="183" y="74"/>
      <point x="126" y="74" type="curve" smooth="yes"/>
      <point x="116" y="74" type="line"/>
    </contour>
    <contour>
      <point x="175" y="336" type="line" smooth="yes"/>
      <point x="178" y="367"/>
      <point x="158" y="396"/>
      <point x="126" y="396" type="curve" smooth="yes"/>
      <point x="103" y="396"/>
      <point x="83" y="385"/>
      <point x="80" y="353" type="curve" smooth="yes"/>
      <point x="48" y="52" type="line" smooth="yes"/>
      <point x="45" y="24"/>
      <point x="68" y="0"/>
      <point x="99" y="0" type="curve" smooth="yes"/>
      <point x="126" y="0"/>
      <point x="141" y="17"/>
      <point x="143" y="38" type="curve" smooth="yes"/>
    </contour>
  </outline>
</glyph>
<glyph name="d.ss01" format="2">
  <advance width="451"/>
  <outline>
    <contour>
      <point x="247" y="69" type="curve"/>
      <point x="238" y="195" type="line"/>
      <point x="189" y="112"/>
      <point x="153" y="83"/>
      <point x="131" y="83" type="curve" smooth="yes"/>
      <point x="113" y="83"/>
      <point x="103" y="101"/>
      <point x="106" y="130" type="curve" smooth="yes"/>
      <point x="111" y="175"/>
      <point x="107" y="263"/>
      <point x="220" y="263" type="curve" smooth="yes"/>
      <point x="226" y="263"/>
      <point x="240" y="263"/>
      <point x="247" y="263" type="curve"/>
      <point x="256" y="350" type="line"/>
      <point x="248" y="350"/>
      <point x="223" y="350"/>
      <point x="216" y="350" type="curve" smooth="yes"/>
      <point x="60" y="350"/>
      <point x="29" y="261"/>
      <point x="17" y="120" type="curve" smooth="yes"/>
      <point x="9" y="21"/>
      <point x="68" y="-4"/>
      <point x="125" y="-4" type="curve" smooth="yes"/>
      <point x="179" y="-4"/>
      <point x="216" y="39"/>
    </contour>
    <contour>
      <point x="342" y="126" type="line" smooth="yes"/>
      <point x="336" y="119"/>
      <point x="330" y="89"/>
      <point x="317" y="89" type="curve" smooth="yes"/>
      <point x="309" y="89"/>
      <point x="310" y="116"/>
      <point x="320" y="208" type="curve" smooth="yes"/>
      <point x="362" y="598" type="line" smooth="yes"/>
      <point x="366" y="631"/>
      <point x="342" y="650"/>
      <point x="315" y="650" type="curve" smooth="yes"/>
      <point x="291" y="650"/>
      <point x="269" y="633"/>
      <point x="266" y="605" type="curve" smooth="yes"/>
      <point x="218" y="156" type="line" smooth="yes"/>
      <point x="209" y="72"/>
      <point x="227" y="0"/>
      <point x="306" y="0" type="curve" smooth="yes"/>
      <point x="345" y="0"/>
      <point x="372" y="15"/>
      <point x="394" y="52" type="curve" smooth="yes"/>
      <point x="411" y="81"/>
      <point x="412" y="94"/>
      <point x="409" y="106" type="curve" smooth="yes"/>
      <point x="405" y="121"/>
      <point x="394" y="134"/>
      <point x="380" y="138" type="curve" smooth="yes"/>
      <point x="368" y="141"/>
      <point x="356" y="139"/>
      <point x="347" y="132" type="curve"/>
    </contour>
  </outline>
</glyph>
<glyph name="e.sc" format="2">
  <advance width="415"/>
  <outline>
    <contour>
      <point x="179" y="339" type="line" smooth="yes"/>
      <point x="183" y="374"/>
      <point x="158" y="396"/>
      <point x="128" y="396" type="curve" smooth="yes"/>
      <point x="97" y="396"/>
      <point x="82" y="377"/>
      <point x="80" y="355" type="curve" smooth="yes"/>
      <point x="48" y="52" type="line" smooth="yes"/>
      <point x="45" y="25"/>
      <point x="62" y="0"/>
      <point x="94" y="0" type="curve" smooth="yes"/>
      <point x="124" y="0"/>
      <point x="145" y="19"/>
      <point x="147" y="39" type="curve" smooth="yes"/>
    </contour>
    <contour>
      <point x="94" y="0" type="line"/>
      <point x="278" y="0" type="line" smooth="yes"/>
      <point x="307" y="0"/>
      <point x="324" y="18"/>
      <point x="324" y="44" type="curve" smooth="yes"/>
      <point x="324" y="69"/>
      <point x="303" y="85"/>
      <point x="274" y="85" type="curve" smooth="yes"/>
      <point x="135" y="85" type="line"/>
    </contour>
    <contour>
      <point x="142" y="150" type="line"/>
      <point x="280" y="150" type="line" smooth="yes"/>
      <point x="310" y="150"/>
      <point x="329" y="169"/>
      <point x="329" y="194" type="curve" smooth="yes"/>
      <point x="329" y="220"/>
      <point x="305" y="238"/>
      <point x="277" y="238" type="curve" smooth="yes"/>
      <point x="153" y="238" type="line"/>
    </contour>
    <contour>
      <point x="158" y="303" type="line"/>
      <point x="311" y="303" type="line" smooth="yes"/>
      <point x="339" y="303"/>
      <point x="356" y="325"/>
      <point x="356" y="351" type="curve" smooth="yes"/>
      <point x="356" y="377"/>
      <point x="334" y="396"/>
      <point x="305" y="396" type="curve" smooth="yes"/>
      <point x="127" y="396" type="line"/>
    </contour>
  </outline>
</glyph>
<glyph name="exclam.c2sc" format="2">
  <advance width="288"/>
  <outline>
    <contour>
      <point x="97" y="-47" type="curve" smooth="yes"/>
      <point x="127" y="-47"/>
      <point x="154" y="-20"/>
      <point x="154" y="9" type="curve" smooth="yes"/>
      <point x="154" y="38"/>
      <point x="127" y="64"/>
      <point x="97" y="64" type="curve" smooth="yes"/>
      <point x="66" y="64"/>
      <point x="44" y="36"/>
      <point x="44" y="9" type="curve" smooth="yes"/>
      <point x="44" y="-18"/>
      <point x="66" y="-47"/>
    </contour>
    <contour>
      <point x="208" y="340" type="line" smooth="yes"/>
      <point x="214" y="370"/>
      <point x="194" y="396"/>
      <point x="164" y="396" type="curve" smooth="yes"/>
      <point x="138" y="396"/>
      <point x="114" y="381"/>
      <point x="109" y="353" type="curve" smooth="yes"/>
      <point x="79" y="186" type="line" smooth="yes"/>
      <point x="73" y="154"/>
      <point x="98" y="129"/>
      <point x="126" y="129" type="curve" smooth="yes"/>
      <point x="152" y="129"/>
      <point x="172" y="146"/>
      <point x="178" y="172" type="curve" smooth="yes"/>
    </contour>
  </outline>
</glyph>
<glyph name="exclamdown.c2sc" format="2">
  <advance width="288"/>
  <outline>
    <contour>
      <point x="160" y="443" type="curve" smooth="yes"/>
      <point x="130" y="443"/>
      <point x="103" y="416"/>
      <point x="103" y="387" type="curve" smooth="yes"/>
      <point x="103" y="358"/>
      <point x="130" y="332"/>
      <point x="160" y="332" type="curve" smooth="yes"/>
      <point x="191" y="332"/>
      <point x="213" y="360"/>
      <point x="213" y="387" type="curve" smooth="yes"/>
      <point x="213" y="414"/>
      <point x="191" y="443"/>
    </contour>
    <contour>
      <point x="49" y="56" type="line" smooth="yes"/>
      <point x="43" y="26"/>
      <point x="63" y="0"/>
      <point x="93" y="0" type="curve" smooth="yes"/>
      <point x="119" y="0"/>
      <point x="143" y="15"/>
      <point x="148" y="43" type="curve" smooth="yes"/>
      <point x="178" y="210" type="line" smooth="yes"/>
      <point x="184" y="242"/>
      <point x="159" y="267"/>
      <point x="131" y="267" type="curve" smooth="yes"/>
      <point x="105" y="267"/>
      <point x="85" y="250"/>
      <point x="79" y="224" type="curve" smooth="yes"/>
    </contour>
  </outline>
</glyph>
<glyph name="f.ss01" format="2">
  <advance width="340"/>
  <outline>
    <contour>
      <point x="312" y="553" type="curve" smooth="yes"/>
      <point x="326" y="548"/>
      <point x="346" y="550"/>
      <point x="360" y="578" type="curve" smooth="yes"/>
      <point x="373" y="604"/>
      <point x="369" y="624"/>
      <point x="349" y="634" type="curve" smooth="yes"/>
      <point x="322" y="648"/>
      <point x="300" y="650"/>
      <point x="259" y="650" type="curve" smooth="yes"/>
      <point x="208" y="650"/>
      <point x="148" y="614"/>
      <point x="138" y="519" type="curve" smooth="yes"/>
      <point x="56" y="-249" type="line" smooth="yes"/>
      <point x="54" y="-272"/>
      <point x="75" y="-300"/>
      <point x="109" y="-300" type="curve" smooth="yes"/>
      <point x="136" y="-300"/>
      <point x="153" y="-280"/>
      <point x="156" y="-256" type="curve" smooth="yes"/>
      <point x="237" y="502" type="line" smooth="yes"/>
      <point x="241" y="541"/>
      <point x="255" y="560"/>
      <point x="273" y="560" type="curve" smooth="yes"/>
      <point x="293" y="560"/>
      <point x="304" y="556"/>
    </contour>
    <contour>
      <point x="262" y="265" type="line" smooth="yes"/>
      <point x="292" y="265"/>
      <point x="310" y="281"/>
      <point x="309" y="307" type="curve" smooth="yes"/>
      <point x="307" y="331"/>
      <point x="289" y="350"/>
      <point x="257" y="350" type="curve" smooth="yes"/>
      <point x="74" y="350" type="line" smooth="yes"/>
      <point x="43" y="350"/>
      <point x="26" y="331"/>
      <point x="28" y="307" type="curve" smooth="yes"/>
      <point x="29" y="283"/>
      <point x="48" y="265"/>
      <point x="79" y="265" type="curve" smooth="yes"/>
    </contour>
  </outline>
</glyph>
<glyph name="five.c2sc" format="2">
  <advance width="403"/>
  <outline>
    <contour>
      <point x="116" y="172" type="line"/>
      <point x="135" y="177"/>
      <point x="147" y="183"/>
      <point x="170" y="180" type="curve" smooth="yes"/>
      <point x="192" y="177"/>
      <point x="201" y="171"/>
      <point x="202" y="151" type="curve" smooth="yes"/>
      <point x="204" y="126"/>
      <point x="177" y="85"/>
      <point x="147" y="85" type="curve" smooth="yes"/>
      <point x="128" y="85"/>
      <point x="123" y="89"/>
      <point x="116" y="93" type="curve" smooth="yes"/>
      <point x="109" y="98"/>
      <point x="97" y="103"/>
      <point x="79" y="103" type="curve" smooth="yes"/>
      <point x="63" y="103"/>
      <point x="41" y="85"/>
      <point x="42" y="67" type="curve" smooth="yes"/>
      <point x="43" y="52"/>
      <point x="48" y="37"/>
      <point x="61" y="26" type="curve" smooth="yes"/>
      <point x="79" y="10"/>
      <point x="109" y="-4"/>
      <point x="143" y="-4" type="curve" smooth="yes"/>
      <point x="240" y="-4"/>
      <point x="301" y="92"/>
      <point x="296" y="156" type="curve" smooth="yes"/>
      <point x="292" y="215"/>
      <point x="236" y="269"/>
      <point x="157" y="269" type="curve" smooth="yes"/>
      <point x="130" y="269"/>
      <point x="101" y="261"/>
      <point x="95" y="259" type="curve"/>
    </contour>
    <contour>
      <point x="168" y="355" type="line"/>
      <point x="145" y="390" type="line"/>
      <point x="123" y="401"/>
      <point x="99" y="396"/>
      <point x="88" y="385" type="curve" smooth="yes"/>
      <point x="80" y="378"/>
      <point x="74" y="367"/>
      <point x="73" y="356" type="curve" smooth="yes"/>
      <point x="58" y="218" type="line" smooth="yes"/>
      <point x="55" y="191"/>
      <point x="79" y="171"/>
      <point x="107" y="171" type="curve" smooth="yes"/>
      <point x="128" y="171"/>
      <point x="151" y="185"/>
      <point x="153" y="208" type="curve" smooth="yes"/>
    </contour>
    <contour>
      <point x="126" y="311" type="line"/>
      <point x="272" y="311" type="line" smooth="yes"/>
      <point x="301" y="311"/>
      <point x="318" y="330"/>
      <point x="316" y="353" type="curve" smooth="yes"/>
      <point x="315" y="375"/>
      <point x="296" y="396"/>
      <point x="266" y="396" type="curve" smooth="yes"/>
      <point x="120" y="396" type="line"/>
    </contour>
  </outline>
</glyph>
<glyph name="h.ss01" format="2">
  <advance width="463"/>
  <outline>
    <contour>
      <point x="232" y="214" type="curve" smooth="yes"/>
      <point x="226" y="156" type="line" smooth="yes"/>
      <point x="217" y="72"/>
      <point x="239" y="0"/>
      <point x="318" y="0" type="curve" smooth="yes"/>
      <point x="357" y="0"/>
      <point x="384" y="15"/>
      <point x="406" y="52" type="curve" smooth="yes"/>
      <point x="423" y="81"/>
      <point x="424" y="94"/>
      <point x="421" y="106" type="curve" smooth="yes"/>
      <point x="417" y="121"/>
      <point x="406" y="134"/>
      <point x="392" y="138" type="curve" smooth="yes"/>
      <point x="380" y="141"/>
      <point x="368" y="139"/>
      <point x="359" y="132" type="curve"/>
      <point x="354" y="126" type="line" smooth="yes"/>
      <point x="348" y="119"/>
      <point x="342" y="89"/>
      <point x="329" y="89" type="curve" smooth="yes"/>
      <point x="321" y="89"/>
      <point x="322" y="115"/>
      <point x="328" y="169" type="curve" smooth="yes"/>
      <point x="332" y="206" type="line" smooth="yes"/>
      <point x="342" y="301"/>
      <point x="309" y="354"/>
      <point x="231" y="354" type="curve" smooth="yes"/>
      <point x="192" y="354"/>
      <point x="160" y="332"/>
      <point x="134" y="315" type="curve"/>
      <point x="121" y="173" type="line"/>
      <point x="161" y="236"/>
      <point x="196" y="266"/>
      <point x="219" y="266" type="curve" smooth="yes"/>
      <point x="235" y="266"/>
      <point x="235" y="239"/>
    </contour>
    <contour>
      <point x="184" y="601" type="line" smooth="yes"/>
      <point x="187" y="633"/>
      <point x="162" y="653"/>
      <point x="135" y="653" type="curve" smooth="yes"/>
      <point x="111" y="653"/>
      <point x="87" y="637"/>
      <point x="84" y="609" type="curve" smooth="yes"/>
      <point x="25" y="45" type="line" smooth="yes"/>
      <point x="22" y="17"/>
      <point x="45" y="-2"/>
      <point x="72" y="-2" type="curve" smooth="yes"/>
      <point x="96" y="-2"/>
      <point x="122" y="11"/>
      <point x="125" y="37" type="curve" smooth="yes"/>
    </contour>
  </outline>
</glyph>
<glyph name="i.sc" format="2">
  <advance width="299"/>
  <outline>
    <contour>
      <point x="199" y="339" type="line" smooth="yes"/>
      <point x="203" y="373"/>
      <point x="180" y="396"/>
      <point x="150" y="396" type="curve" smooth="yes"/>
      <point x="124" y="396"/>
      <point x="103" y="379"/>
      <point x="100" y="354" type="curve" smooth="yes"/>
      <point x="68" y="51" type="line" smooth="yes"/>
      <point x="65" y="23"/>
      <point x="85" y="0"/>
      <point x="115" y="0" type="curve" smooth="yes"/>
      <point x="144" y="0"/>
      <point x="165" y="17"/>
      <point x="167" y="38" type="curve" smooth="yes"/>
    </contour>
  </outline>
</glyph>
<glyph name="i.ss01" format="2">
  <advance width="273"/>
  <outline>
    <contour>
      <point x="52" y="305" type="curve" smooth="yes"/>
      <point x="37" y="155" type="line" smooth="yes"/>
      <point x="29" y="71"/>
      <point x="49" y="-1"/>
      <point x="128" y="-1" type="curve" smooth="yes"/>
      <point x="167" y="-1"/>
      <point x="194" y="14"/>
      <point x="216" y="51" type="curve" smooth="yes"/>
      <point x="233" y="80"/>
      <point x="234" y="93"/>
      <point x="231" y="105" type="curve" smooth="yes"/>
      <point x="227" y="120"/>
      <point x="216" y="133"/>
      <point x="202" y="137" type="curve" smooth="yes"/>
      <point x="190" y="140"/>
      <point x="178" y="138"/>
      <point x="169" y="131" type="curve"/>
      <point x="164" y="125" type="line" smooth="yes"/>
      <point x="158" y="118"/>
      <point x="152" y="88"/>
      <point x="139" y="88" type="curve" smooth="yes"/>
      <point x="131" y="88"/>
      <point x="132" y="115"/>
      <point x="142" y="207" type="curve" smooth="yes"/>
      <point x="151" y="294" type="line" smooth="yes"/>
      <point x="154" y="327"/>
      <point x="128" y="350"/>
      <point x="103" y="350" type="curve" smooth="yes"/>
      <point x="79" y="350"/>
      <point x="55" y="332"/>
    </contour>
    <contour>
      <point x="122" y="417" type="curve" smooth="yes"/>
      <point x="149" y="417"/>
      <point x="169" y="439"/>
      <point x="169" y="466" type="curve" smooth="yes"/>
      <point x="169" y="493"/>
      <point x="149" y="515"/>
      <point x="122" y="515" type="curve" smooth="yes"/>
      <point x="96" y="515"/>
      <point x="71" y="493"/>
      <point x="71" y="466" type="curve" smooth="yes"/>
      <point x="71" y="439"/>
      <point x="96" y="417"/>
    </contour>
  </outline>
</glyph>
<glyph name="l.ss01" format="2">
  <advance width="273"/>
  <outline>
    <contour>
      <point x="84" y="612" type="curve" smooth="yes"/>
      <point x="37" y="155" type="line" smooth="yes"/>
      <point x="28" y="72"/>
      <point x="49" y="-1"/>
      <point x="128" y="-1" type="curve" smooth="yes"/>
      <point x="167" y="-1"/>
      <point x="194" y="14"/>
      <point x="216" y="51" type="curve" smooth="yes"/>
      <point x="233" y="80"/>
      <point x="234" y="93"/>
      <point x="231" y="105" type="curve" smooth="yes"/>
      <point x="227" y="120"/>
      <point x="216" y="133"/>
      <point x="202" y="137" type="curve" smooth="yes"/>
      <point x="190" y="140"/>
      <point x="178" y="138"/>
      <point x="169" y="131" type="curve"/>
      <point x="164" y="125" type="line" smooth="yes"/>
      <point x="158" y="118"/>
      <point x="152" y="88"/>
      <point x="139" y="88" type="curve" smooth="yes"/>
      <point x="131" y="88"/>
      <point x="132" y="114"/>
      <point x="142" y="207" type="curve" smooth="yes"/>
      <point x="183" y="599" type="line" smooth="yes"/>
      <point x="186" y="631"/>
      <point x="162" y="650"/>
      <point x="134" y="650" type="curve" smooth="yes"/>
      <point x="112" y="650"/>
      <point x="86" y="635"/>
    </contour>
  </outline>
</glyph>
<glyph name="m.sc" format="2">
  <advance width="577"/>
  <outline>
    <contour>
      <point x="286" y="77" type="line"/>
      <point x="182" y="362" type="line" smooth="yes"/>
      <point x="173" y="387"/>
      <point x="153" y="396"/>
      <point x="125" y="396" type="curve"/>
      <point x="109" y="283" type="line"/>
      <point x="201" y="34" type="line" smooth="yes"/>
      <point x="209" y="11"/>
      <point x="226" y="0"/>
      <point x="259" y="0" type="curve"/>
    </contour>
    <contour>
      <point x="173" y="290" type="line"/>
      <point x="126" y="396" type="line"/>
      <point x="98" y="396"/>
      <point x="83" y="383"/>
      <point x="80" y="353" type="curve" smooth="yes"/>
      <point x="48" y="51" type="line" smooth="yes"/>
      <point x="46" y="20"/>
      <point x="70" y="0"/>
      <point x="97" y="0" type="curve" smooth="yes"/>
      <point x="125" y="0"/>
      <point x="145" y="18"/>
      <point x="147" y="41" type="curve" smooth="yes"/>
    </contour>
    <contour>
      <point x="421" y="0" type="curve" smooth="yes"/>
      <point x="448" y="0"/>
      <point x="463" y="16"/>
      <point x="465" y="39" type="curve" smooth="yes"/>
      <point x="497" y="339" type="line" smooth="yes"/>
      <point x="502" y="377"/>
      <point x="481" y="396"/>
      <point x="451" y="396" type="curve"/>
      <point x="392" y="278" type="line"/>
      <point x="367" y="49" type="line" smooth="yes"/>
      <point x="364" y="24"/>
      <point x="387" y="0"/>
    </contour>
    <contour>
      <point x="231" y="83" type="line"/>
      <point x="255" y="0" type="line"/>
      <point x="288" y="0"/>
      <point x="303" y="6"/>
      <point x="315" y="28" type="curve" smooth="yes"/>
      <point x="452" y="262" type="line"/>
      <point x="452" y="396" type="line"/>
      <point x="425" y="396"/>
      <point x="410" y="387"/>
      <point x="398" y="367" type="curve" smooth="yes"/>
    </contour>
  </outline>
</glyph>
<glyph name="n.sc" format="2">
  <advance width="435"/>
  <outline>
    <contour>
      <point x="274" y="140" type="line"/>
      <point x="181" y="365" type="line" smooth="yes"/>
      <point x="175" y="380"/>
      <point x="157" y="396"/>
      <point x="125" y="396" type="curve"/>
      <point x="122" y="279" type="line"/>
      <point x="225" y="28" type="line" smooth="yes"/>
      <point x="232" y="10"/>
      <point x="254" y="0"/>
      <point x="280" y="0" type="curve"/>
    </contour>
    <contour>
      <point x="171" y="271" type="line"/>
      <point x="127" y="396" type="line"/>
      <point x="93" y="396"/>
      <point x="82" y="376"/>
      <point x="80" y="353" type="curve" smooth="yes"/>
      <point x="48" y="51" type="line" smooth="yes"/>
      <point x="45" y="20"/>
      <point x="64" y="0"/>
      <point x="91" y="0" type="curve" smooth="yes"/>
      <point x="119" y="0"/>
      <point x="145" y="18"/>
      <point x="147" y="41" type="curve" smooth="yes"/>
    </contour>
    <contour>
      <point x="278" y="0" type="line"/>
      <point x="313" y="0"/>
      <point x="321" y="19"/>
      <point x="323" y="39" type="curve" smooth="yes"/>
      <point x="355" y="339" type="line" smooth="yes"/>
      <point x="358" y="369"/>
      <point x="337" y="396"/>
      <point x="306" y="396" type="curve" smooth="yes"/>
      <point x="280" y="396"/>
      <point x="258" y="376"/>
      <point x="256" y="354" type="curve" smooth="yes"/>
      <point x="234" y="138" type="line"/>
    </contour>
  </outline>
</glyph>
<glyph name="n.ss01" format="2">
  <advance width="463"/>
  <outline>
    <contour>
      <point x="153" y="302" type="line" smooth="yes"/>
      <point x="156" y="332"/>
      <point x="139" y="350"/>
      <point x="107" y="350" type="curve" smooth="yes"/>
      <point x="65" y="350"/>
      <point x="53" y="320"/>
      <point x="52" y="308" type="curve" smooth="yes"/>
      <point x="24" y="44" type="line" smooth="yes"/>
      <point x="21" y="20"/>
      <point x="34" y="0"/>
      <point x="68" y="0" type="curve" smooth="yes"/>
      <point x="105" y="0"/>
      <point x="122" y="22"/>
      <point x="124" y="37" type="curve" smooth="yes"/>
    </contour>
    <contour>
      <point x="232" y="214" type="curve" smooth="yes"/>
      <point x="227" y="156" type="line" smooth="yes"/>
      <point x="220" y="72"/>
      <point x="239" y="0"/>
      <point x="318" y="0" type="curve" smooth="yes"/>
      <point x="357" y="0"/>
      <point x="384" y="15"/>
      <point x="406" y="52" type="curve" smooth="yes"/>
      <point x="423" y="81"/>
      <point x="424" y="94"/>
      <point x="421" y="106" type="curve" smooth="yes"/>
      <point x="417" y="121"/>
      <point x="406" y="134"/>
      <point x="392" y="138" type="curve" smooth="yes"/>
      <point x="380" y="141"/>
      <point x="366" y="141"/>
      <point x="359" y="132" type="curve" smooth="yes"/>
      <point x="354" y="126" type="line" smooth="yes"/>
      <point x="348" y="119"/>
      <point x="342" y="89"/>
      <point x="329" y="89" type="curve" smooth="yes"/>
      <point x="322" y="89"/>
      <point x="321" y="102"/>
      <point x="327" y="159" type="curve" smooth="yes"/>
      <point x="332" y="206" type="line" smooth="yes"/>
      <point x="342" y="301"/>
      <point x="309" y="354"/>
      <point x="231" y="354" type="curve" smooth="yes"/>
      <point x="192" y="354"/>
      <point x="160" y="332"/>
      <point x="134" y="315" type="curve"/>
      <point x="121" y="173" type="line"/>
      <point x="161" y="236"/>
      <point x="196" y="266"/>
      <point x="219" y="266" type="curve" smooth="yes"/>
      <point x="235" y="266"/>
      <point x="234" y="239"/>
    </contour>
  </outline>
</glyph>
<glyph name="one.c2sc" format="2">
  <advance width="487"/>
  <outline>
    <contour>
      <point x="282" y="353" type="line" smooth="yes"/>
      <point x="286" y="387"/>
      <point x="254" y="396"/>
      <point x="238" y="396" type="curve" smooth="yes"/>
      <point x="222" y="396"/>
      <point x="191" y="389"/>
      <point x="187" y="355" type="curve" smooth="yes"/>
      <point x="154" y="43" type="line" smooth="yes"/>
      <point x="150" y="8"/>
      <point x="182" y="0"/>
      <point x="199" y="0" type="curve" smooth="yes"/>
      <point x="213" y="0"/>
      <point x="245" y="5"/>
      <point x="248" y="38" type="curve" smooth="yes"/>
    </contour>
  </outline>
</glyph>
<glyph name="q.sc" format="2">
  <advance width="420"/>
  <outline>
    <contour>
      <point x="242" y="127" type="line"/>
      <point x="218" y="148"/>
      <point x="195" y="153"/>
      <point x="180" y="133" type="curve" smooth="yes"/>
      <point x="165" y="116"/>
      <point x="176" y="90"/>
      <point x="198" y="68" type="curve" smooth="yes"/>
      <point x="267" y="1" type="line" smooth="yes"/>
      <point x="288" y="-20"/>
      <point x="309" y="-21"/>
      <point x="325" y="-5" type="curve" smooth="yes"/>
      <point x="345" y="13"/>
      <point x="336" y="36"/>
      <point x="314" y="57" type="curve" smooth="yes"/>
    </contour>
    <contour>
      <point x="172" y="0" type="curve" smooth="yes"/>
      <point x="278" y="0"/>
      <point x="339" y="149"/>
      <point x="348" y="251" type="curve" smooth="yes"/>
      <point x="357" y="328"/>
      <point x="330" y="396"/>
      <point x="207" y="396" type="curve" smooth="yes"/>
      <point x="103" y="396"/>
      <point x="66" y="267"/>
      <point x="65" y="178" type="curve" smooth="yes"/>
      <point x="64" y="100"/>
      <point x="86" y="0"/>
    </contour>
    <contour>
      <point x="182" y="90" type="curve" smooth="yes"/>
      <point x="168" y="90"/>
      <point x="154" y="124"/>
      <point x="155" y="167" type="curve" smooth="yes"/>
      <point x="155" y="211"/>
      <point x="160" y="305"/>
      <point x="222" y="305" type="curve" smooth="yes"/>
      <point x="263" y="305"/>
      <point x="261" y="284"/>
      <point x="258" y="258" type="curve" smooth="yes"/>
      <point x="250" y="184"/>
      <point x="204" y="90"/>
    </contour>
  </outline>
</glyph>
<glyph name="questiondown.c2sc" format="2">
  <advance width="429"/>
  <outline>
    <contour>
      <point x="271" y="291" type="line"/>
      <point x="168" y="298"/>
      <point x="70" y="261"/>
      <point x="60" y="145" type="curve" smooth="yes"/>
      <point x="53" y="62"/>
      <point x="99" y="0"/>
      <point x="199" y="0" type="curve" smooth="yes"/>
      <point x="271" y="0"/>
      <point x="324" y="35"/>
      <point x="352" y="101" type="curve" smooth="yes"/>
      <point x="363" y="127"/>
      <point x="353" y="156"/>
      <point x="329" y="166" type="curve" smooth="yes"/>
      <point x="309" y="173"/>
      <point x="272" y="167"/>
      <point x="261" y="140" type="curve" smooth="yes"/>
      <point x="247" y="107"/>
      <point x="233" y="96"/>
      <point x="202" y="96" type="curve" smooth="yes"/>
      <point x="170" y="96"/>
      <point x="155" y="111"/>
      <point x="160" y="143" type="curve" smooth="yes"/>
      <point x="169" y="200"/>
      <point x="213" y="196"/>
      <point x="260" y="196" type="curve" smooth="yes"/>
      <point x="258" y="196"/>
      <point x="265" y="201"/>
      <point x="293" y="220" type="curve"/>
    </contour>
    <contour>
      <point x="292" y="488" type="curve" smooth="yes"/>
      <point x="262" y="488"/>
      <point x="234" y="462"/>
      <point x="234" y="435" type="curve" smooth="yes"/>
      <point x="234" y="403"/>
      <point x="260" y="377"/>
      <point x="292" y="377" type="curve" smooth="yes"/>
      <point x="321" y="377"/>
      <point x="344" y="405"/>
      <point x="344" y="435" type="curve" smooth="yes"/>
      <point x="344" y="460"/>
      <point x="321" y="488"/>
    </contour>
    <contour>
      <point x="280" y="341" type="curve" smooth="yes"/>
      <point x="253" y="346"/>
      <point x="225" y="332"/>
      <point x="218" y="296" type="curve" smooth="yes"/>
      <point x="208" y="242" type="line" smooth="yes"/>
      <point x="203" y="217"/>
      <point x="227" y="196"/>
      <point x="259" y="196" type="curve" smooth="yes"/>
      <point x="281" y="196"/>
      <point x="305" y="212"/>
      <point x="309" y="234" type="curve" smooth="yes"/>
      <point x="319" y="287" type="line" smooth="yes"/>
      <point x="324" y="314"/>
      <point x="305" y="335"/>
    </contour>
  </outline>
</glyph>
<glyph name="quotedbl.c2sc" format="2">
  <advance width="420"/>
  <outline>
    <contour>
      <point x="349" y="427" type="line" smooth="yes"/>
      <point x="353" y="461"/>
      <point x="326" y="482"/>
      <point x="298" y="482" type="curve" smooth="yes"/>
      <point x="275" y="482"/>
      <point x="252" y="467"/>
      <point x="248" y="442" type="curve" smooth="yes"/>
      <point x="237" y="342" type="line" smooth="yes"/>
      <point x="233" y="304"/>
      <point x="265" y="288"/>
      <point x="289" y="288" type="curve" smooth="yes"/>
      <point x="311" y="288"/>
      <point x="337" y="302"/>
      <point x="339" y="328" type="curve" smooth="yes"/>
    </contour>
    <contour>
      <point x="190" y="426" type="line" smooth="yes"/>
      <point x="194" y="460"/>
      <point x="169" y="482"/>
      <point x="141" y="482" type="curve" smooth="yes"/>
      <point x="118" y="482"/>
      <point x="93" y="466"/>
      <point x="90" y="438" type="curve" smooth="yes"/>
      <point x="79" y="342" type="line" smooth="yes"/>
      <point x="76" y="309"/>
      <point x="102" y="288"/>
      <point x="130" y="288" type="curve" smooth="yes"/>
      <point x="153" y="288"/>
      <point x="177" y="303"/>
      <point x="180" y="330" type="curve" smooth="yes"/>
    </contour>
  </outline>
</glyph>
<glyph name="six.c2sc" format="2">
  <advance width="423"/>
  <outline>
    <contour>
      <point x="158" y="92" type="line"/>
      <point x="147" y="133"/>
      <point x="167" y="175"/>
      <point x="208" y="242" type="curve" smooth="yes"/>
      <point x="222" y="264"/>
      <point x="243" y="286"/>
      <point x="282" y="314" type="curve" smooth="yes"/>
      <point x="295" y="323"/>
      <point x="303" y="338"/>
      <point x="302" y="354" type="curve" smooth="yes"/>
      <point x="301" y="376"/>
      <point x="279" y="396"/>
      <point x="254" y="396" type="curve" smooth="yes"/>
      <point x="245" y="396"/>
      <point x="235" y="393"/>
      <point x="225" y="386" type="curve" smooth="yes"/>
      <point x="192" y="366"/>
      <point x="146" y="320"/>
      <point x="126" y="290" type="curve" smooth="yes"/>
      <point x="81" y="219"/>
      <point x="63" y="158"/>
      <point x="69" y="92" type="curve"/>
    </contour>
    <contour>
      <point x="68" y="97" type="line"/>
      <point x="71" y="47"/>
      <point x="115" y="-4"/>
      <point x="176" y="-4" type="curve" smooth="yes"/>
      <point x="258" y="-4"/>
      <point x="325" y="105"/>
      <point x="319" y="180" type="curve" smooth="yes"/>
      <point x="315" y="236"/>
      <point x="276" y="267"/>
      <point x="216" y="267" type="curve" smooth="yes"/>
      <point x="149" y="267"/>
      <point x="103" y="226"/>
      <point x="83" y="183" type="curve"/>
    </contour>
    <contour>
      <point x="177" y="84" type="curve" smooth="yes"/>
      <point x="167" y="84"/>
      <point x="161" y="94"/>
      <point x="160" y="113" type="curve" smooth="yes"/>
      <point x="158" y="147"/>
      <point x="178" y="179"/>
      <point x="212" y="179" type="curve" smooth="yes"/>
      <point x="224" y="179"/>
      <point x="227" y="175"/>
      <point x="228" y="163" type="curve" smooth="yes"/>
      <point x="230" y="133"/>
      <point x="197" y="84"/>
    </contour>
  </outline>
</glyph>
<glyph name="u.sc" format="2">
  <advance width="435"/>
  <outline>
    <contour>
      <point x="244" y="62" type="curve"/>
      <point x="258" y="222" type="line"/>
      <point x="256" y="218"/>
      <point x="254" y="215"/>
      <point x="252" y="212" type="curve" smooth="yes"/>
      <point x="226" y="173"/>
      <point x="162" y="88"/>
      <point x="152" y="88" type="curve" smooth="yes"/>
      <point x="142" y="88"/>
      <point x="145" y="108"/>
      <point x="148" y="137" type="curve" smooth="yes"/>
      <point x="171" y="342" type="line" smooth="yes"/>
      <point x="175" y="376"/>
      <point x="158" y="396"/>
      <point x="130" y="396" type="curve" smooth="yes"/>
      <point x="102" y="397"/>
      <point x="83" y="376"/>
      <point x="80" y="351" type="curve" smooth="yes"/>
      <point x="56" y="130" type="line" smooth="yes"/>
      <point x="46" y="42"/>
      <point x="79" y="-4"/>
      <point x="123" y="-4" type="curve" smooth="yes"/>
      <point x="165" y="-4"/>
      <point x="207" y="23"/>
    </contour>
    <contour>
      <point x="356" y="343" type="line" smooth="yes"/>
      <point x="359" y="376"/>
      <point x="340" y="396"/>
      <point x="308" y="396" type="curve" smooth="yes"/>
      <point x="283" y="396"/>
      <point x="268" y="376"/>
      <point x="266" y="357" type="curve" smooth="yes"/>
      <point x="234" y="51" type="line" smooth="yes"/>
      <point x="231" y="19"/>
      <point x="248" y="0"/>
      <point x="275" y="0" type="curve" smooth="yes"/>
      <point x="301" y="0"/>
      <point x="322" y="16"/>
      <point x="324" y="38" type="curve" smooth="yes"/>
    </contour>
  </outline>
</glyph>
<glyph name="w.ss01" format="2">
  <advance width="676"/>
  <outline>
    <contour>
      <point x="152" y="298" type="line" smooth="yes"/>
      <point x="156" y="331"/>
      <point x="132" y="350"/>
      <point x="105" y="350" type="curve" smooth="yes"/>
      <point x="83" y="350"/>
      <point x="55" y="335"/>
      <point x="52" y="308" type="curve" smooth="yes"/>
      <point x="32" y="115" type="line" smooth="yes"/>
      <point x="26" y="56"/>
      <point x="47" y="-4"/>
      <point x="110" y="-4" type="curve" smooth="yes"/>
      <point x="196" y="-4"/>
      <point x="249" y="54"/>
      <point x="286" y="129" type="curve" smooth="yes"/>
      <point x="298" y="153" type="line"/>
      <point x="311" y="350" type="line"/>
      <point x="284" y="350"/>
      <point x="269" y="337"/>
      <point x="257" y="308" type="curve" smooth="yes"/>
      <point x="251" y="293"/>
      <point x="241" y="262"/>
      <point x="225" y="223" type="curve" smooth="yes"/>
      <point x="211" y="188"/>
      <point x="187" y="125"/>
      <point x="159" y="96" type="curve" smooth="yes"/>
      <point x="119" y="53"/>
      <point x="131" y="99"/>
      <point x="137" y="157" type="curve" smooth="yes"/>
    </contour>
    <contour>
      <point x="359" y="298" type="line" smooth="yes"/>
      <point x="363" y="331"/>
      <point x="337" y="350"/>
      <point x="310" y="350" type="curve"/>
      <point x="242" y="148" type="line"/>
      <point x="239" y="115" type="line" smooth="yes"/>
      <point x="234" y="56"/>
      <point x="254" y="-4"/>
      <point x="317" y="-4" type="curve" smooth="yes"/>
      <point x="403" y="-4"/>
      <point x="454" y="55"/>
      <point x="493" y="129" type="curve" smooth="yes"/>
      <point x="516" y="173"/>
      <point x="545" y="248"/>
      <point x="558" y="289" type="curve" smooth="yes"/>
      <point x="574" y="340"/>
      <point x="537" y="350"/>
      <point x="515" y="350" type="curve" smooth="yes"/>
      <point x="488" y="350"/>
      <point x="476" y="337"/>
      <point x="464" y="308" type="curve" smooth="yes"/>
      <point x="458" y="293"/>
      <point x="448" y="262"/>
      <point x="432" y="223" type="curve" smooth="yes"/>
      <point x="418" y="188"/>
      <point x="394" y="125"/>
      <point x="366" y="96" type="curve" smooth="yes"/>
      <point x="326" y="53"/>
      <point x="338" y="99"/>
      <point x="344" y="157" type="curve" smooth="yes"/>
    </contour>
    <contour>
      <point x="535" y="347" type="line"/>
      <point x="526" y="255" type="line"/>
      <point x="561" y="244" type="line" smooth="yes"/>
      <point x="600" y="232"/>
      <point x="624" y="230"/>
      <point x="639" y="245" type="curve" smooth="yes"/>
      <point x="648" y="254"/>
      <point x="652" y="279"/>
      <point x="650" y="292" type="curve" smooth="yes"/>
      <point x="646" y="313"/>
      <point x="620" y="321"/>
      <point x="587" y="331" type="curve" smooth="yes"/>
    </contour>
  </outline>
</glyph>
<glyph name="y.sc" format="2">
  <advance width="419"/>
  <outline>
    <contour>
      <point x="173" y="177" type="line"/>
      <point x="237" y="251" type="line"/>
      <point x="173" y="368" type="line" smooth="yes"/>
      <point x="154" y="401"/>
      <point x="122" y="401"/>
      <point x="107" y="393" type="curve" smooth="yes"/>
      <point x="78" y="383"/>
      <point x="75" y="354"/>
      <point x="88" y="333" type="curve" smooth="yes"/>
    </contour>
    <contour>
      <point x="377" y="323" type="line" smooth="yes"/>
      <point x="395" y="345"/>
      <point x="387" y="368"/>
      <point x="368" y="385" type="curve" smooth="yes"/>
      <point x="348" y="402"/>
      <point x="315" y="401"/>
      <point x="298" y="378" type="curve" smooth="yes"/>
      <point x="64" y="72" type="line" smooth="yes"/>
      <point x="48" y="52"/>
      <point x="52" y="31"/>
      <point x="71" y="13" type="curve" smooth="yes"/>
      <point x="90" y="-4"/>
      <point x="126" y="-7"/>
      <point x="145" y="17" type="curve" smooth="yes"/>
    </contour>
  </outline>
</glyph>
<glyph name="z.ss01" format="2">
  <advance width="397"/>
  <outline>
    <contour>
      <point x="318" y="277" type="line" smooth="yes"/>
      <point x="333" y="296"/>
      <point x="333" y="321"/>
      <point x="315" y="340" type="curve" smooth="yes"/>
      <point x="306" y="348"/>
      <point x="292" y="350"/>
      <point x="279" y="350" type="curve" smooth="yes"/>
      <point x="267" y="350"/>
      <point x="253" y="345"/>
      <point x="246" y="337" type="curve" smooth="yes"/>
      <point x="36" y="75" type="line" smooth="yes"/>
      <point x="21" y="57"/>
      <point x="20" y="34"/>
      <point x="38" y="12" type="curve" smooth="yes"/>
      <point x="46" y="4"/>
      <point x="60" y="0"/>
      <point x="73" y="0" type="curve" smooth="yes"/>
      <point x="87" y="0"/>
      <point x="102" y="7"/>
      <point x="110" y="16" type="curve" smooth="yes"/>
    </contour>
    <contour>
      <point x="293" y="126" type="line" smooth="yes"/>
      <point x="279" y="110"/>
      <point x="287" y="80"/>
      <point x="254" y="80" type="curve" smooth="yes"/>
      <point x="238" y="80"/>
      <point x="223" y="100"/>
      <point x="207" y="100" type="curve" smooth="yes"/>
      <point x="186" y="100"/>
      <point x="163" y="88"/>
      <point x="142" y="85" type="curve"/>
      <point x="72" y="0" type="line"/>
      <point x="116" y="4"/>
      <point x="157" y="19"/>
      <point x="201" y="19" type="curve" smooth="yes"/>
      <point x="218" y="19"/>
      <point x="237" y="2"/>
      <point x="254" y="0" type="curve"/>
      <point x="293" y="0"/>
      <point x="319" y="19"/>
      <point x="341" y="56" type="curve" smooth="yes"/>
      <point x="358" y="85"/>
      <point x="359" y="98"/>
      <point x="356" y="110" type="curve" smooth="yes"/>
      <point x="352" y="125"/>
      <point x="341" y="138"/>
      <point x="327" y="142" type="curve" smooth="yes"/>
      <point x="315" y="145"/>
      <point x="305" y="141"/>
      <point x="298" y="132" type="curve" smooth="yes"/>
    </contour>
    <contour>
      <point x="214" y="260" type="line"/>
      <point x="280" y="350" type="line"/>
      <point x="97" y="350" type="line" smooth="yes"/>
      <point x="67" y="350"/>
      <point x="50" y="329"/>
      <point x="52" y="305" type="curve" smooth="yes"/>
      <point x="53" y="281"/>
      <point x="73" y="260"/>
      <point x="103" y="260" type="curve" smooth="yes"/>
    </contour>
  </outline>
</glyph>
